<svg width="1080" height="1920" viewBox="0 0 1080 1920" fill="none" xmlns="http://www.w3.org/2000/svg">
<rect width="1080" height="1920" fill="#272727"/>
<path d="M477.481 1829.74C477.328 1828.32 476.686 1827.2 475.553 1826.41C474.432 1825.61 472.972 1825.22 471.175 1825.22C469.912 1825.22 468.829 1825.41 467.925 1825.79C467.021 1826.17 466.329 1826.69 465.85 1827.34C465.371 1827.99 465.126 1828.74 465.115 1829.58C465.115 1830.28 465.273 1830.88 465.589 1831.39C465.915 1831.9 466.357 1832.34 466.912 1832.7C467.467 1833.05 468.083 1833.34 468.758 1833.58C469.433 1833.82 470.114 1834.02 470.8 1834.19L473.936 1834.97C475.199 1835.26 476.414 1835.66 477.579 1836.16C478.755 1836.66 479.806 1837.29 480.732 1838.06C481.668 1838.82 482.409 1839.74 482.953 1840.82C483.498 1841.9 483.77 1843.16 483.77 1844.61C483.77 1846.57 483.269 1848.29 482.267 1849.79C481.265 1851.27 479.817 1852.43 477.922 1853.26C476.038 1854.09 473.756 1854.51 471.077 1854.51C468.475 1854.51 466.215 1854.1 464.298 1853.3C462.393 1852.49 460.901 1851.32 459.822 1849.77C458.755 1848.22 458.178 1846.34 458.091 1844.12H464.053C464.14 1845.28 464.5 1846.25 465.131 1847.02C465.763 1847.8 466.585 1848.38 467.598 1848.76C468.622 1849.14 469.765 1849.33 471.028 1849.33C472.346 1849.33 473.5 1849.13 474.491 1848.74C475.493 1848.34 476.277 1847.78 476.844 1847.07C477.41 1846.36 477.699 1845.52 477.71 1844.56C477.699 1843.69 477.443 1842.97 476.942 1842.4C476.441 1841.82 475.738 1841.35 474.835 1840.96C473.942 1840.57 472.896 1840.22 471.698 1839.92L467.892 1838.94C465.137 1838.23 462.959 1837.16 461.358 1835.72C459.768 1834.27 458.973 1832.35 458.973 1829.95C458.973 1827.98 459.507 1826.26 460.574 1824.78C461.652 1823.3 463.117 1822.15 464.968 1821.33C466.819 1820.5 468.916 1820.09 471.257 1820.09C473.631 1820.09 475.711 1820.5 477.497 1821.33C479.294 1822.15 480.704 1823.28 481.728 1824.74C482.752 1826.19 483.28 1827.86 483.312 1829.74H477.481ZM489.173 1854V1820.55H501.718C504.288 1820.55 506.445 1821.02 508.187 1821.98C509.94 1822.94 511.263 1824.26 512.156 1825.94C513.06 1827.6 513.512 1829.5 513.512 1831.62C513.512 1833.77 513.06 1835.67 512.156 1837.34C511.253 1839 509.919 1840.32 508.154 1841.27C506.39 1842.22 504.218 1842.7 501.637 1842.7H493.322V1837.71H500.82C502.323 1837.71 503.553 1837.45 504.512 1836.93C505.47 1836.41 506.178 1835.69 506.635 1834.77C507.103 1833.86 507.338 1832.81 507.338 1831.62C507.338 1830.43 507.103 1829.39 506.635 1828.48C506.178 1827.58 505.464 1826.88 504.495 1826.38C503.537 1825.87 502.301 1825.61 500.787 1825.61H495.233V1854H489.173ZM548.67 1837.27C548.67 1840.88 547.995 1843.96 546.644 1846.53C545.305 1849.09 543.475 1851.05 541.156 1852.42C538.847 1853.78 536.228 1854.46 533.298 1854.46C530.369 1854.46 527.744 1853.78 525.425 1852.42C523.116 1851.04 521.286 1849.08 519.936 1846.52C518.597 1843.95 517.927 1840.87 517.927 1837.27C517.927 1833.67 518.597 1830.59 519.936 1828.03C521.286 1825.46 523.116 1823.49 525.425 1822.13C527.744 1820.77 530.369 1820.09 533.298 1820.09C536.228 1820.09 538.847 1820.77 541.156 1822.13C543.475 1823.49 545.305 1825.46 546.644 1828.03C547.995 1830.59 548.67 1833.67 548.67 1837.27ZM542.577 1837.27C542.577 1834.74 542.179 1832.6 541.384 1830.85C540.6 1829.1 539.511 1827.78 538.117 1826.88C536.723 1825.98 535.117 1825.53 533.298 1825.53C531.48 1825.53 529.873 1825.98 528.479 1826.88C527.085 1827.78 525.991 1829.1 525.196 1830.85C524.412 1832.6 524.02 1834.74 524.02 1837.27C524.02 1839.81 524.412 1841.96 525.196 1843.71C525.991 1845.45 527.085 1846.77 528.479 1847.68C529.873 1848.57 531.48 1849.02 533.298 1849.02C535.117 1849.02 536.723 1848.57 538.117 1847.68C539.511 1846.77 540.6 1845.45 541.384 1843.71C542.179 1841.96 542.577 1839.81 542.577 1837.27ZM551.447 1825.63V1820.55H578.138V1825.63H567.798V1854H561.787V1825.63H551.447ZM589.344 1820.55V1854H583.284V1820.55H589.344ZM595.907 1854V1820.55H617.339V1825.63H601.968V1834.71H615.869V1839.79H601.968V1854H595.907ZM620.573 1820.55H627.418L635.602 1835.35H635.928L644.112 1820.55H650.957L638.787 1841.52V1854H632.743V1841.52L620.573 1820.55ZM656.025 1854.36C655.034 1854.36 654.184 1854.01 653.477 1853.31C652.769 1852.62 652.42 1851.77 652.431 1850.77C652.42 1849.79 652.769 1848.95 653.477 1848.25C654.184 1847.55 655.034 1847.2 656.025 1847.2C656.983 1847.2 657.816 1847.55 658.524 1848.25C659.243 1848.95 659.608 1849.79 659.619 1850.77C659.608 1851.43 659.433 1852.03 659.096 1852.58C658.769 1853.12 658.334 1853.56 657.789 1853.89C657.255 1854.2 656.667 1854.36 656.025 1854.36ZM694.621 1831.83H688.512C688.337 1830.83 688.016 1829.94 687.548 1829.17C687.079 1828.39 686.497 1827.72 685.8 1827.18C685.103 1826.63 684.308 1826.22 683.415 1825.95C682.533 1825.67 681.58 1825.53 680.556 1825.53C678.738 1825.53 677.126 1825.99 675.721 1826.9C674.316 1827.8 673.216 1829.13 672.421 1830.89C671.626 1832.63 671.229 1834.76 671.229 1837.27C671.229 1839.83 671.626 1841.99 672.421 1843.74C673.227 1845.48 674.327 1846.8 675.721 1847.69C677.126 1848.58 678.732 1849.02 680.54 1849.02C681.542 1849.02 682.478 1848.89 683.35 1848.63C684.232 1848.35 685.021 1847.96 685.718 1847.43C686.426 1846.91 687.02 1846.27 687.499 1845.51C687.989 1844.74 688.326 1843.87 688.512 1842.89L694.621 1842.92C694.392 1844.51 693.897 1846.01 693.134 1847.4C692.383 1848.79 691.397 1850.03 690.178 1851.09C688.958 1852.15 687.531 1852.98 685.898 1853.58C684.264 1854.16 682.451 1854.46 680.458 1854.46C677.518 1854.46 674.893 1853.78 672.585 1852.42C670.276 1851.05 668.457 1849.09 667.129 1846.52C665.8 1843.95 665.136 1840.87 665.136 1837.27C665.136 1833.67 665.806 1830.59 667.145 1828.03C668.485 1825.46 670.309 1823.49 672.617 1822.13C674.926 1820.77 677.54 1820.09 680.458 1820.09C682.32 1820.09 684.052 1820.35 685.653 1820.87C687.254 1821.39 688.68 1822.16 689.933 1823.18C691.185 1824.18 692.214 1825.41 693.02 1826.87C693.837 1828.32 694.37 1829.97 694.621 1831.83ZM730.064 1837.27C730.064 1840.88 729.389 1843.96 728.039 1846.53C726.699 1849.09 724.87 1851.05 722.55 1852.42C720.241 1853.78 717.622 1854.46 714.693 1854.46C711.763 1854.46 709.139 1853.78 706.819 1852.42C704.511 1851.04 702.681 1849.08 701.331 1846.52C699.991 1843.95 699.321 1840.87 699.321 1837.27C699.321 1833.67 699.991 1830.59 701.331 1828.03C702.681 1825.46 704.511 1823.49 706.819 1822.13C709.139 1820.77 711.763 1820.09 714.693 1820.09C717.622 1820.09 720.241 1820.77 722.55 1822.13C724.87 1823.49 726.699 1825.46 728.039 1828.03C729.389 1830.59 730.064 1833.67 730.064 1837.27ZM723.971 1837.27C723.971 1834.74 723.574 1832.6 722.779 1830.85C721.995 1829.1 720.906 1827.78 719.512 1826.88C718.118 1825.98 716.511 1825.53 714.693 1825.53C712.874 1825.53 711.268 1825.98 709.874 1826.88C708.48 1827.78 707.386 1829.1 706.591 1830.85C705.806 1832.6 705.414 1834.74 705.414 1837.27C705.414 1839.81 705.806 1841.96 706.591 1843.71C707.386 1845.45 708.48 1846.77 709.874 1847.68C711.268 1848.57 712.874 1849.02 714.693 1849.02C716.511 1849.02 718.118 1848.57 719.512 1847.68C720.906 1846.77 721.995 1845.45 722.779 1843.71C723.574 1841.96 723.971 1839.81 723.971 1837.27ZM735.794 1820.55H743.21L753.142 1844.79H753.534L763.466 1820.55H770.882V1854H765.067V1831.02H764.756L755.51 1853.9H751.165L741.92 1830.97H741.609V1854H735.794V1820.55ZM790.876 1818.98L780.095 1859.03H774.917L785.698 1818.98H790.876ZM802.221 1854L792.779 1820.55H799.297L805.325 1845.13H805.635L812.071 1820.55H818.001L824.453 1845.15H824.747L830.775 1820.55H837.293L827.851 1854H821.872L815.175 1830.53H814.914L808.2 1854H802.221ZM841.495 1854V1820.55H854.04C856.611 1820.55 858.767 1820.99 860.509 1821.88C862.263 1822.78 863.586 1824.03 864.479 1825.64C865.383 1827.24 865.835 1829.11 865.835 1831.25C865.835 1833.39 865.377 1835.25 864.462 1836.83C863.558 1838.4 862.224 1839.61 860.46 1840.47C858.696 1841.32 856.529 1841.75 853.959 1841.75H845.023V1836.72H853.142C854.645 1836.72 855.875 1836.51 856.834 1836.1C857.792 1835.67 858.5 1835.06 858.957 1834.25C859.426 1833.43 859.66 1832.43 859.66 1831.25C859.66 1830.06 859.426 1829.05 858.957 1828.21C858.489 1827.36 857.776 1826.71 856.817 1826.28C855.859 1825.83 854.623 1825.61 853.109 1825.61H847.555V1854H841.495ZM858.778 1838.84L867.06 1854H860.297L852.162 1838.84H858.778ZM875.709 1854H869.24L881.018 1820.55H888.5L900.294 1854H893.825L884.89 1827.41H884.628L875.709 1854ZM875.922 1840.88H893.564V1845.75H875.922V1840.88ZM904.7 1854V1820.55H917.246C919.816 1820.55 921.972 1821.02 923.714 1821.98C925.468 1822.94 926.791 1824.26 927.684 1825.94C928.588 1827.6 929.04 1829.5 929.04 1831.62C929.04 1833.77 928.588 1835.67 927.684 1837.34C926.78 1839 925.446 1840.32 923.682 1841.27C921.917 1842.22 919.745 1842.7 917.164 1842.7H908.849V1837.71H916.347C917.85 1837.71 919.081 1837.45 920.039 1836.93C920.997 1836.41 921.705 1835.69 922.162 1834.77C922.631 1833.86 922.865 1832.81 922.865 1831.62C922.865 1830.43 922.631 1829.39 922.162 1828.48C921.705 1827.58 920.992 1826.88 920.023 1826.38C919.064 1825.87 917.828 1825.61 916.314 1825.61H910.76V1854H904.7ZM934.304 1854V1820.55H946.849C949.419 1820.55 951.575 1821.02 953.318 1821.98C955.071 1822.94 956.394 1824.26 957.287 1825.94C958.191 1827.6 958.643 1829.5 958.643 1831.62C958.643 1833.77 958.191 1835.67 957.287 1837.34C956.383 1839 955.049 1840.32 953.285 1841.27C951.521 1842.22 949.348 1842.7 946.767 1842.7H938.453V1837.71H945.951C947.453 1837.71 948.684 1837.45 949.642 1836.93C950.601 1836.41 951.309 1835.69 951.766 1834.77C952.234 1833.86 952.468 1832.81 952.468 1831.62C952.468 1830.43 952.234 1829.39 951.766 1828.48C951.309 1827.58 950.595 1826.88 949.626 1826.38C948.668 1825.87 947.432 1825.61 945.918 1825.61H940.364V1854H934.304ZM963.907 1854V1820.55H985.666V1825.63H969.968V1834.71H984.539V1839.79H969.968V1848.92H985.796V1854H963.907ZM1003.19 1854H991.849V1820.55H1003.41C1006.74 1820.55 1009.59 1821.22 1011.97 1822.55C1014.37 1823.88 1016.21 1825.79 1017.49 1828.29C1018.78 1830.78 1019.42 1833.77 1019.42 1837.24C1019.42 1840.72 1018.77 1843.72 1017.48 1846.22C1016.19 1848.73 1014.34 1850.65 1011.91 1851.99C1009.49 1853.33 1006.58 1854 1003.19 1854ZM997.909 1848.76H1002.89C1005.22 1848.76 1007.17 1848.33 1008.72 1847.48C1010.28 1846.62 1011.45 1845.34 1012.23 1843.64C1013.02 1841.93 1013.41 1839.8 1013.41 1837.24C1013.41 1834.68 1013.02 1832.56 1012.23 1830.87C1011.45 1829.17 1010.29 1827.9 1008.76 1827.06C1007.23 1826.21 1005.34 1825.79 1003.07 1825.79H997.909V1848.76Z" fill="#272727"/>
<path d="M118.098 1788.59C88.938 1787.44 64.3608 1809.97 63.2065 1838.92C62.0475 1867.87 84.7509 1892.27 113.906 1893.42C143.067 1894.57 167.639 1872.03 168.798 1843.08C169.953 1814.13 147.254 1789.73 118.098 1788.59ZM140.401 1865.44C139.744 1866.59 138.464 1867.16 137.218 1866.99C136.837 1866.94 136.455 1866.81 136.098 1866.61C129.115 1862.66 121.503 1860.09 113.477 1858.97C105.45 1857.85 97.4186 1858.24 89.6093 1860.12C87.9142 1860.53 86.2094 1859.5 85.7989 1857.82C85.3884 1856.13 86.4267 1854.44 88.1219 1854.03C96.7087 1851.96 105.537 1851.54 114.356 1852.77C123.174 1854 131.539 1856.82 139.223 1861.16C140.734 1862.02 141.266 1863.93 140.406 1865.44H140.401ZM147.346 1851.67C146.269 1853.64 143.777 1854.38 141.787 1853.31C133.616 1848.92 124.768 1846.04 115.491 1844.75C106.213 1843.45 96.9115 1843.8 87.8369 1845.78C87.3443 1845.89 86.8565 1845.91 86.3832 1845.84C84.7364 1845.61 83.3262 1844.39 82.9495 1842.68C82.4617 1840.48 83.8622 1838.31 86.0742 1837.83C96.105 1835.64 106.387 1835.25 116.635 1836.68C126.878 1838.11 136.658 1841.29 145.689 1846.14C147.684 1847.21 148.423 1849.68 147.346 1851.66V1851.67ZM155.044 1836.14C154.03 1838.08 151.919 1839.08 149.862 1838.79C149.307 1838.72 148.761 1838.54 148.234 1838.27C138.72 1833.36 128.472 1830.11 117.775 1828.62C107.078 1827.13 96.3223 1827.45 85.8134 1829.57C83.0799 1830.12 80.4188 1828.36 79.8634 1825.65C79.308 1822.94 81.0756 1820.3 83.8043 1819.75C95.4434 1817.4 107.343 1817.05 119.18 1818.7C131.017 1820.35 142.357 1823.95 152.895 1829.39C155.368 1830.67 156.329 1833.69 155.044 1836.15V1836.14Z" fill="#272727"/>
<mask id="path-3-outside-1_2_363" maskUnits="userSpaceOnUse" x="121" y="738" width="836" height="249" fill="black">
<rect fill="white" x="121" y="738" width="836" height="249"/>
<path d="M238.874 897.2C255.674 896.827 268.087 896.453 276.114 896.08V949H127.994V896.08C148.154 896.827 163.367 897.2 173.634 897.2V800.6C166.914 815.347 153.194 824.867 132.474 829.16C131.914 807.133 129.861 787.067 126.314 768.96C141.247 766.907 151.607 764.387 157.394 761.4C163.367 758.227 167.941 754.773 171.114 751.04C174.474 747.307 176.714 744.787 177.834 743.48V742.92H238.874V897.2ZM312.203 892.16C320.603 892.16 327.603 895.427 333.203 901.96C338.99 908.307 341.883 917.173 341.883 928.56C341.883 937.893 340.203 947.693 336.843 957.96C333.67 968.227 329.19 976.533 323.403 982.88H299.603C307.443 972.24 312.39 961.787 314.443 951.52C304.737 951.52 296.99 948.627 291.203 942.84C285.417 937.053 282.523 930.053 282.523 921.84C282.523 913.627 285.417 906.627 291.203 900.84C296.99 895.053 303.99 892.16 312.203 892.16ZM468.573 897.2C485.373 896.827 497.786 896.453 505.813 896.08V949H357.693V896.08C377.853 896.827 393.066 897.2 403.333 897.2V800.6C396.613 815.347 382.893 824.867 362.173 829.16C361.613 807.133 359.559 787.067 356.013 768.96C370.946 766.907 381.306 764.387 387.093 761.4C393.066 758.227 397.639 754.773 400.813 751.04C404.173 747.307 406.413 744.787 407.533 743.48V742.92H468.573V897.2ZM638.837 810.12C653.583 810.12 667.023 813.2 679.157 819.36C691.29 825.333 700.81 833.453 707.717 843.72C714.81 853.987 718.357 865 718.357 876.76C718.357 892.067 713.503 905.413 703.797 916.8C694.09 928.187 680.93 936.867 664.317 942.84C647.703 948.813 629.13 951.8 608.597 951.8C587.69 951.8 569.023 947.693 552.597 939.48C536.357 931.08 523.663 919.507 514.517 904.76C505.557 890.013 501.077 873.213 501.077 854.36C501.077 816.84 511.437 788.933 532.157 770.64C553.063 752.16 581.157 742.92 616.437 742.92C659.37 742.92 693.25 753.747 718.077 775.4C706.877 787.347 696.61 800.507 687.277 814.88C679.81 809.28 669.263 804.8 655.637 801.44C642.197 797.893 630.157 796.12 619.517 796.12C603.277 796.12 589.65 800.227 578.637 808.44C567.623 816.467 560.903 828.04 558.477 843.16C558.29 844.093 558.197 845.4 558.197 847.08C567.157 834.013 578.917 824.587 593.477 818.8C608.223 813.013 623.343 810.12 638.837 810.12ZM611.397 898.6C618.49 898.6 625.117 897.667 631.277 895.8C637.437 893.747 642.29 891.04 645.837 887.68C649.383 884.133 651.157 880.4 651.157 876.48C651.157 870.32 647.237 865.093 639.397 860.8C631.743 856.32 622.41 854.08 611.397 854.08C600.383 854.08 590.957 856.32 583.117 860.8C575.463 865.093 571.637 870.32 571.637 876.48C571.637 880.4 573.41 884.133 576.957 887.68C580.503 891.04 585.357 893.747 591.517 895.8C597.677 897.667 604.303 898.6 611.397 898.6ZM845.041 742.92C865.948 742.92 884.521 747.12 900.761 755.52C917.188 763.733 929.881 775.213 938.841 789.96C947.988 804.707 952.561 821.507 952.561 840.36C952.561 877.88 942.108 905.88 921.201 924.36C900.481 942.653 872.481 951.8 837.201 951.8C794.268 951.8 760.388 940.973 735.561 919.32C746.761 907.373 757.028 894.213 766.361 879.84C773.641 885.813 784.001 890.48 797.441 893.84C810.881 897.013 823.108 898.6 834.121 898.6C850.361 898.6 863.988 894.587 875.001 886.56C886.015 878.347 892.735 866.68 895.161 851.56C895.348 850.627 895.441 849.32 895.441 847.64C886.481 860.707 874.628 870.32 859.881 876.48C845.135 882.453 830.108 885.44 814.801 885.44C799.868 885.44 786.335 882.733 774.201 877.32C762.068 871.907 752.548 864.533 745.641 855.2C738.735 845.68 735.281 835.04 735.281 823.28C735.281 806.293 740.041 791.733 749.561 779.6C759.268 767.467 772.428 758.32 789.041 752.16C805.655 746 824.321 742.92 845.041 742.92ZM842.241 841.48C849.335 841.48 855.868 840.453 861.841 838.4C868.001 836.16 872.855 833.267 876.401 829.72C880.135 826.173 882.001 822.347 882.001 818.24C882.001 811.893 878.081 806.48 870.241 802C862.588 797.52 853.255 795.28 842.241 795.28C831.228 795.28 821.801 797.52 813.961 802C806.308 806.48 802.481 811.893 802.481 818.24C802.481 824.773 806.308 830.28 813.961 834.76C821.801 839.24 831.228 841.48 842.241 841.48Z"/>
</mask>
<path d="M238.874 897.2C255.674 896.827 268.087 896.453 276.114 896.08V949H127.994V896.08C148.154 896.827 163.367 897.2 173.634 897.2V800.6C166.914 815.347 153.194 824.867 132.474 829.16C131.914 807.133 129.861 787.067 126.314 768.96C141.247 766.907 151.607 764.387 157.394 761.4C163.367 758.227 167.941 754.773 171.114 751.04C174.474 747.307 176.714 744.787 177.834 743.48V742.92H238.874V897.2ZM312.203 892.16C320.603 892.16 327.603 895.427 333.203 901.96C338.99 908.307 341.883 917.173 341.883 928.56C341.883 937.893 340.203 947.693 336.843 957.96C333.67 968.227 329.19 976.533 323.403 982.88H299.603C307.443 972.24 312.39 961.787 314.443 951.52C304.737 951.52 296.99 948.627 291.203 942.84C285.417 937.053 282.523 930.053 282.523 921.84C282.523 913.627 285.417 906.627 291.203 900.84C296.99 895.053 303.99 892.16 312.203 892.16ZM468.573 897.2C485.373 896.827 497.786 896.453 505.813 896.08V949H357.693V896.08C377.853 896.827 393.066 897.2 403.333 897.2V800.6C396.613 815.347 382.893 824.867 362.173 829.16C361.613 807.133 359.559 787.067 356.013 768.96C370.946 766.907 381.306 764.387 387.093 761.4C393.066 758.227 397.639 754.773 400.813 751.04C404.173 747.307 406.413 744.787 407.533 743.48V742.92H468.573V897.2ZM638.837 810.12C653.583 810.12 667.023 813.2 679.157 819.36C691.29 825.333 700.81 833.453 707.717 843.72C714.81 853.987 718.357 865 718.357 876.76C718.357 892.067 713.503 905.413 703.797 916.8C694.09 928.187 680.93 936.867 664.317 942.84C647.703 948.813 629.13 951.8 608.597 951.8C587.69 951.8 569.023 947.693 552.597 939.48C536.357 931.08 523.663 919.507 514.517 904.76C505.557 890.013 501.077 873.213 501.077 854.36C501.077 816.84 511.437 788.933 532.157 770.64C553.063 752.16 581.157 742.92 616.437 742.92C659.37 742.92 693.25 753.747 718.077 775.4C706.877 787.347 696.61 800.507 687.277 814.88C679.81 809.28 669.263 804.8 655.637 801.44C642.197 797.893 630.157 796.12 619.517 796.12C603.277 796.12 589.65 800.227 578.637 808.44C567.623 816.467 560.903 828.04 558.477 843.16C558.29 844.093 558.197 845.4 558.197 847.08C567.157 834.013 578.917 824.587 593.477 818.8C608.223 813.013 623.343 810.12 638.837 810.12ZM611.397 898.6C618.49 898.6 625.117 897.667 631.277 895.8C637.437 893.747 642.29 891.04 645.837 887.68C649.383 884.133 651.157 880.4 651.157 876.48C651.157 870.32 647.237 865.093 639.397 860.8C631.743 856.32 622.41 854.08 611.397 854.08C600.383 854.08 590.957 856.32 583.117 860.8C575.463 865.093 571.637 870.32 571.637 876.48C571.637 880.4 573.41 884.133 576.957 887.68C580.503 891.04 585.357 893.747 591.517 895.8C597.677 897.667 604.303 898.6 611.397 898.6ZM845.041 742.92C865.948 742.92 884.521 747.12 900.761 755.52C917.188 763.733 929.881 775.213 938.841 789.96C947.988 804.707 952.561 821.507 952.561 840.36C952.561 877.88 942.108 905.88 921.201 924.36C900.481 942.653 872.481 951.8 837.201 951.8C794.268 951.8 760.388 940.973 735.561 919.32C746.761 907.373 757.028 894.213 766.361 879.84C773.641 885.813 784.001 890.48 797.441 893.84C810.881 897.013 823.108 898.6 834.121 898.6C850.361 898.6 863.988 894.587 875.001 886.56C886.015 878.347 892.735 866.68 895.161 851.56C895.348 850.627 895.441 849.32 895.441 847.64C886.481 860.707 874.628 870.32 859.881 876.48C845.135 882.453 830.108 885.44 814.801 885.44C799.868 885.44 786.335 882.733 774.201 877.32C762.068 871.907 752.548 864.533 745.641 855.2C738.735 845.68 735.281 835.04 735.281 823.28C735.281 806.293 740.041 791.733 749.561 779.6C759.268 767.467 772.428 758.32 789.041 752.16C805.655 746 824.321 742.92 845.041 742.92ZM842.241 841.48C849.335 841.48 855.868 840.453 861.841 838.4C868.001 836.16 872.855 833.267 876.401 829.72C880.135 826.173 882.001 822.347 882.001 818.24C882.001 811.893 878.081 806.48 870.241 802C862.588 797.52 853.255 795.28 842.241 795.28C831.228 795.28 821.801 797.52 813.961 802C806.308 806.48 802.481 811.893 802.481 818.24C802.481 824.773 806.308 830.28 813.961 834.76C821.801 839.24 831.228 841.48 842.241 841.48Z" fill="#9691FF"/>
<path d="M238.874 897.2H234.874V901.29L238.963 901.199L238.874 897.2ZM276.114 896.08H280.114V891.89L275.928 892.084L276.114 896.08ZM276.114 949V953H280.114V949H276.114ZM127.994 949H123.994V953H127.994V949ZM127.994 896.08L128.142 892.083L123.994 891.929V896.08H127.994ZM173.634 897.2V901.2H177.634V897.2H173.634ZM173.634 800.6H177.634L169.994 798.941L173.634 800.6ZM132.474 829.16L128.475 829.262L128.597 834.048L133.286 833.077L132.474 829.16ZM126.314 768.96L125.769 764.997L121.575 765.574L122.389 769.729L126.314 768.96ZM157.394 761.4L159.229 764.954L159.25 764.944L159.271 764.932L157.394 761.4ZM171.114 751.04L168.141 748.364L168.103 748.406L168.066 748.449L171.114 751.04ZM177.834 743.48L180.871 746.083L181.834 744.96V743.48H177.834ZM177.834 742.92V738.92H173.834V742.92H177.834ZM238.874 742.92H242.874V738.92H238.874V742.92ZM238.874 897.2L238.963 901.199C255.768 900.826 268.222 900.451 276.3 900.076L276.114 896.08L275.928 892.084C267.953 892.455 255.58 892.828 238.785 893.201L238.874 897.2ZM276.114 896.08H272.114V949H276.114H280.114V896.08H276.114ZM276.114 949V945H127.994V949V953H276.114V949ZM127.994 949H131.994V896.08H127.994H123.994V949H127.994ZM127.994 896.08L127.846 900.077C148.018 900.824 163.291 901.2 173.634 901.2V897.2V893.2C163.444 893.2 148.29 892.829 128.142 892.083L127.994 896.08ZM173.634 897.2H177.634V800.6H173.634H169.634V897.2H173.634ZM173.634 800.6L169.994 798.941C163.958 812.186 151.553 821.122 131.662 825.243L132.474 829.16L133.286 833.077C154.835 828.612 169.87 818.507 177.274 802.259L173.634 800.6ZM132.474 829.16L136.473 829.058C135.908 806.849 133.837 786.555 130.239 768.191L126.314 768.96L122.389 769.729C125.885 787.578 127.92 807.417 128.475 829.262L132.474 829.16ZM126.314 768.96L126.859 772.923C141.806 770.867 152.777 768.285 159.229 764.954L157.394 761.4L155.56 757.846C150.438 760.489 140.689 762.946 125.769 764.997L126.314 768.96ZM157.394 761.4L159.271 764.932C165.532 761.606 170.562 757.865 174.162 753.631L171.114 751.04L168.066 748.449C165.319 751.681 161.203 754.847 155.517 757.868L157.394 761.4ZM171.114 751.04L174.087 753.716C177.443 749.988 179.715 747.432 180.871 746.083L177.834 743.48L174.797 740.877C173.714 742.141 171.506 744.626 168.141 748.364L171.114 751.04ZM177.834 743.48H181.834V742.92H177.834H173.834V743.48H177.834ZM177.834 742.92V746.92H238.874V742.92V738.92H177.834V742.92ZM238.874 742.92H234.874V897.2H238.874H242.874V742.92H238.874ZM333.203 901.96L330.166 904.563L330.206 904.61L330.248 904.655L333.203 901.96ZM336.843 957.96L333.042 956.716L333.032 956.747L333.022 956.779L336.843 957.96ZM323.403 982.88V986.88H325.169L326.359 985.575L323.403 982.88ZM299.603 982.88L296.383 980.507L291.687 986.88H299.603V982.88ZM314.443 951.52L318.366 952.304L319.323 947.52H314.443V951.52ZM291.203 942.84L294.032 940.012L291.203 942.84ZM312.203 892.16V896.16C319.403 896.16 325.305 898.892 330.166 904.563L333.203 901.96L336.24 899.357C329.902 891.962 321.803 888.16 312.203 888.16V892.16ZM333.203 901.96L330.248 904.655C335.168 910.052 337.883 917.839 337.883 928.56H341.883H345.883C345.883 916.508 342.812 906.561 336.159 899.265L333.203 901.96ZM341.883 928.56H337.883C337.883 937.41 336.291 946.789 333.042 956.716L336.843 957.96L340.645 959.204C344.116 948.598 345.883 938.376 345.883 928.56H341.883ZM336.843 957.96L333.022 956.779C329.98 966.621 325.751 974.368 320.448 980.185L323.403 982.88L326.359 985.575C332.629 978.699 337.36 969.833 340.665 959.141L336.843 957.96ZM323.403 982.88V978.88H299.603V982.88V986.88H323.403V982.88ZM299.603 982.88L302.824 985.253C310.923 974.261 316.172 963.276 318.366 952.304L314.443 951.52L310.521 950.736C308.609 960.298 303.964 970.219 296.383 980.507L299.603 982.88ZM314.443 951.52V947.52C305.586 947.52 298.931 944.91 294.032 940.012L291.203 942.84L288.375 945.668C295.05 952.343 303.888 955.52 314.443 955.52V951.52ZM291.203 942.84L294.032 940.012C288.998 934.978 286.523 928.997 286.523 921.84H282.523H278.523C278.523 931.11 281.835 939.129 288.375 945.668L291.203 942.84ZM282.523 921.84H286.523C286.523 914.683 288.998 908.702 294.032 903.668L291.203 900.84L288.375 898.012C281.835 904.551 278.523 912.57 278.523 921.84H282.523ZM291.203 900.84L294.032 903.668C299.065 898.635 305.047 896.16 312.203 896.16V892.16V888.16C302.934 888.16 294.915 891.472 288.375 898.012L291.203 900.84ZM468.573 897.2H464.573V901.29L468.661 901.199L468.573 897.2ZM505.813 896.08H509.813V891.89L505.627 892.084L505.813 896.08ZM505.813 949V953H509.813V949H505.813ZM357.693 949H353.693V953H357.693V949ZM357.693 896.08L357.841 892.083L353.693 891.929V896.08H357.693ZM403.333 897.2V901.2H407.333V897.2H403.333ZM403.333 800.6H407.333L399.693 798.941L403.333 800.6ZM362.173 829.16L358.174 829.262L358.296 834.048L362.984 833.077L362.173 829.16ZM356.013 768.96L355.468 764.997L351.273 765.574L352.087 769.729L356.013 768.96ZM387.093 761.4L388.927 764.954L388.948 764.944L388.969 764.932L387.093 761.4ZM400.813 751.04L397.839 748.364L397.801 748.406L397.765 748.449L400.813 751.04ZM407.533 743.48L410.57 746.083L411.533 744.96V743.48H407.533ZM407.533 742.92V738.92H403.533V742.92H407.533ZM468.573 742.92H472.573V738.92H468.573V742.92ZM468.573 897.2L468.661 901.199C485.467 900.826 497.921 900.451 505.998 900.076L505.813 896.08L505.627 892.084C497.651 892.455 485.278 892.828 468.484 893.201L468.573 897.2ZM505.813 896.08H501.813V949H505.813H509.813V896.08H505.813ZM505.813 949V945H357.693V949V953H505.813V949ZM357.693 949H361.693V896.08H357.693H353.693V949H357.693ZM357.693 896.08L357.544 900.077C377.716 900.824 392.99 901.2 403.333 901.2V897.2V893.2C393.142 893.2 377.989 892.829 357.841 892.083L357.693 896.08ZM403.333 897.2H407.333V800.6H403.333H399.333V897.2H403.333ZM403.333 800.6L399.693 798.941C393.657 812.186 381.251 821.122 361.361 825.243L362.173 829.16L362.984 833.077C384.534 828.612 399.568 818.507 406.972 802.259L403.333 800.6ZM362.173 829.16L366.171 829.058C365.607 806.849 363.535 786.555 359.938 768.191L356.013 768.96L352.087 769.729C355.583 787.578 357.618 807.417 358.174 829.262L362.173 829.16ZM356.013 768.96L356.557 772.923C371.505 770.867 382.475 768.285 388.927 764.954L387.093 761.4L385.258 757.846C380.137 760.489 370.387 762.946 355.468 764.997L356.013 768.96ZM387.093 761.4L388.969 764.932C395.231 761.606 400.261 757.865 403.86 753.631L400.813 751.04L397.765 748.449C395.018 751.681 390.901 754.847 385.216 757.868L387.093 761.4ZM400.813 751.04L403.786 753.716C407.141 749.988 409.413 747.432 410.57 746.083L407.533 743.48L404.495 740.877C403.412 742.141 401.204 744.626 397.839 748.364L400.813 751.04ZM407.533 743.48H411.533V742.92H407.533H403.533V743.48H407.533ZM407.533 742.92V746.92H468.573V742.92V738.92H407.533V742.92ZM468.573 742.92H464.573V897.2H468.573H472.573V742.92H468.573ZM679.157 819.36L677.346 822.927L677.368 822.938L677.39 822.949L679.157 819.36ZM707.717 843.72L704.398 845.953L704.412 845.973L704.426 845.994L707.717 843.72ZM703.797 916.8L706.841 919.395V919.395L703.797 916.8ZM664.317 942.84L662.963 939.076V939.076L664.317 942.84ZM552.597 939.48L550.759 943.033L550.783 943.045L550.808 943.058L552.597 939.48ZM514.517 904.76L511.098 906.837L511.108 906.853L511.117 906.868L514.517 904.76ZM532.157 770.64L534.804 773.639L534.806 773.637L532.157 770.64ZM718.077 775.4L720.995 778.136L723.831 775.111L720.706 772.385L718.077 775.4ZM687.277 814.88L684.877 818.08L688.301 820.648L690.631 817.058L687.277 814.88ZM655.637 801.44L654.616 805.308L654.647 805.316L654.679 805.324L655.637 801.44ZM578.637 808.44L580.993 811.673L581.01 811.66L581.028 811.646L578.637 808.44ZM558.477 843.16L562.399 843.944L562.414 843.869L562.426 843.794L558.477 843.16ZM558.197 847.08H554.197V859.986L561.496 849.342L558.197 847.08ZM593.477 818.8L592.015 815.076L592.007 815.08L591.999 815.083L593.477 818.8ZM631.277 895.8L632.437 899.628L632.489 899.612L632.542 899.595L631.277 895.8ZM645.837 887.68L648.588 890.584L648.627 890.547L648.665 890.508L645.837 887.68ZM639.397 860.8L637.376 864.252L637.425 864.281L637.475 864.308L639.397 860.8ZM583.117 860.8L585.074 864.289L585.087 864.281L585.101 864.273L583.117 860.8ZM576.957 887.68L574.128 890.508L574.166 890.547L574.206 890.584L576.957 887.68ZM591.517 895.8L590.252 899.595L590.304 899.612L590.357 899.628L591.517 895.8ZM638.837 810.12V814.12C653.008 814.12 665.82 817.075 677.346 822.927L679.157 819.36L680.967 815.793C668.227 809.325 654.159 806.12 638.837 806.12V810.12ZM679.157 819.36L677.39 822.949C688.956 828.643 697.917 836.319 704.398 845.953L707.717 843.72L711.035 841.487C703.703 830.588 693.624 822.024 680.923 815.771L679.157 819.36ZM707.717 843.72L704.426 845.994C711.087 855.635 714.357 865.863 714.357 876.76H718.357H722.357C722.357 864.137 718.533 852.338 711.008 841.446L707.717 843.72ZM718.357 876.76H714.357C714.357 891.139 709.827 903.56 700.753 914.205L703.797 916.8L706.841 919.395C717.18 907.266 722.357 892.994 722.357 876.76H718.357ZM703.797 916.8L700.753 914.205C691.573 924.973 679.039 933.296 662.963 939.076L664.317 942.84L665.67 946.604C682.82 940.438 696.607 931.4 706.841 919.395L703.797 916.8ZM664.317 942.84L662.963 939.076C646.848 944.87 628.742 947.8 608.597 947.8V951.8V955.8C629.517 955.8 648.558 952.757 665.67 946.604L664.317 942.84ZM608.597 951.8V947.8C588.224 947.8 570.184 943.802 554.385 935.902L552.597 939.48L550.808 943.058C567.862 951.585 587.155 955.8 608.597 955.8V951.8ZM552.597 939.48L554.434 935.927C538.8 927.84 526.661 916.751 517.916 902.652L514.517 904.76L511.117 906.868C520.665 922.262 533.913 934.32 550.759 943.033L552.597 939.48ZM514.517 904.76L517.935 902.683C509.39 888.62 505.077 872.551 505.077 854.36H501.077H497.077C497.077 873.876 501.723 891.407 511.098 906.837L514.517 904.76ZM501.077 854.36H505.077C505.077 817.558 515.221 790.928 534.804 773.639L532.157 770.64L529.509 767.641C507.653 786.938 497.077 816.122 497.077 854.36H501.077ZM532.157 770.64L534.806 773.637C554.804 755.96 581.866 746.92 616.437 746.92V742.92V738.92C580.447 738.92 551.323 748.36 529.507 767.643L532.157 770.64ZM616.437 742.92V746.92C658.702 746.92 691.547 757.569 715.447 778.415L718.077 775.4L720.706 772.385C694.953 749.924 660.037 738.92 616.437 738.92V742.92ZM718.077 775.4L715.158 772.664C703.789 784.791 693.378 798.139 683.922 812.702L687.277 814.88L690.631 817.058C699.842 802.874 709.964 789.902 720.995 778.136L718.077 775.4ZM687.277 814.88L689.677 811.68C681.62 805.637 670.505 800.986 656.594 797.556L655.637 801.44L654.679 805.324C668.022 808.614 678 812.923 684.877 818.08L687.277 814.88ZM655.637 801.44L656.657 797.572C642.98 793.963 630.588 792.12 619.517 792.12V796.12V800.12C629.726 800.12 641.414 801.824 654.616 805.308L655.637 801.44ZM619.517 796.12V792.12C602.577 792.12 588.069 796.416 576.245 805.233L578.637 808.44L581.028 811.646C591.231 804.037 603.976 800.12 619.517 800.12V796.12ZM578.637 808.44L576.281 805.207C564.305 813.935 557.099 826.504 554.527 842.526L558.477 843.16L562.426 843.794C564.708 829.576 570.941 818.998 580.993 811.673L578.637 808.44ZM558.477 843.16L554.554 842.376C554.291 843.691 554.197 845.304 554.197 847.08H558.197H562.197C562.197 845.496 562.289 844.495 562.399 843.944L558.477 843.16ZM558.197 847.08L561.496 849.342C570.012 836.923 581.141 828.007 594.954 822.517L593.477 818.8L591.999 815.083C576.692 821.166 564.302 831.104 554.898 844.818L558.197 847.08ZM593.477 818.8L594.938 822.524C609.23 816.915 623.855 814.12 638.837 814.12V810.12V806.12C622.832 806.12 607.217 809.111 592.015 815.076L593.477 818.8ZM611.397 898.6V902.6C618.843 902.6 625.864 901.62 632.437 899.628L631.277 895.8L630.117 891.972C624.369 893.714 618.137 894.6 611.397 894.6V898.6ZM631.277 895.8L632.542 899.595C639.082 897.415 644.501 894.455 648.588 890.584L645.837 887.68L643.086 884.776C640.079 887.625 635.791 890.079 630.012 892.005L631.277 895.8ZM645.837 887.68L648.665 890.508C652.742 886.431 655.157 881.736 655.157 876.48H651.157H647.157C647.157 879.064 646.024 881.835 643.008 884.852L645.837 887.68ZM651.157 876.48H655.157C655.157 868.248 649.796 861.934 641.318 857.292L639.397 860.8L637.475 864.308C644.677 868.252 647.157 872.392 647.157 876.48H651.157ZM639.397 860.8L641.417 857.348C633.019 852.432 622.95 850.08 611.397 850.08V854.08V858.08C621.87 858.08 630.467 860.208 637.376 864.252L639.397 860.8ZM611.397 854.08V850.08C599.839 850.08 589.696 852.433 581.132 857.327L583.117 860.8L585.101 864.273C592.217 860.207 600.927 858.08 611.397 858.08V854.08ZM583.117 860.8L581.16 857.311C572.842 861.977 567.637 868.298 567.637 876.48H571.637H575.637C575.637 872.342 578.084 868.209 585.074 864.289L583.117 860.8ZM571.637 876.48H567.637C567.637 881.736 570.051 886.431 574.128 890.508L576.957 887.68L579.785 884.852C576.769 881.835 575.637 879.064 575.637 876.48H571.637ZM576.957 887.68L574.206 890.584C578.292 894.455 583.711 897.415 590.252 899.595L591.517 895.8L592.781 892.005C587.002 890.079 582.714 887.625 579.708 884.776L576.957 887.68ZM591.517 895.8L590.357 899.628C596.929 901.62 603.95 902.6 611.397 902.6V898.6V894.6C604.657 894.6 598.424 893.714 592.677 891.972L591.517 895.8ZM900.761 755.52L898.924 759.073L898.948 759.085L898.972 759.098L900.761 755.52ZM938.841 789.96L935.423 792.037L935.432 792.053L935.442 792.068L938.841 789.96ZM921.201 924.36L923.849 927.359L923.85 927.357L921.201 924.36ZM735.561 919.32L732.643 916.584L729.807 919.609L732.932 922.335L735.561 919.32ZM766.361 879.84L768.898 876.748L765.442 873.911L763.006 877.662L766.361 879.84ZM797.441 893.84L796.471 897.721L796.497 897.727L796.522 897.733L797.441 893.84ZM875.001 886.56L877.357 889.793L877.375 889.78L877.393 889.767L875.001 886.56ZM895.161 851.56L891.239 850.775L891.224 850.851L891.212 850.926L895.161 851.56ZM895.441 847.64H899.441V834.734L892.142 845.378L895.441 847.64ZM859.881 876.48L861.383 880.187L861.403 880.179L861.423 880.171L859.881 876.48ZM774.201 877.32L772.571 880.973V880.973L774.201 877.32ZM745.641 855.2L742.404 857.549L742.415 857.564L742.426 857.579L745.641 855.2ZM749.561 779.6L746.438 777.101L746.426 777.116L746.414 777.131L749.561 779.6ZM789.041 752.16L790.432 755.91V755.91L789.041 752.16ZM861.841 838.4L863.142 842.183L863.175 842.171L863.208 842.159L861.841 838.4ZM876.401 829.72L873.646 826.82L873.609 826.855L873.573 826.892L876.401 829.72ZM870.241 802L868.221 805.452L868.239 805.463L868.257 805.473L870.241 802ZM813.961 802L811.977 798.527L811.959 798.537L811.941 798.548L813.961 802ZM813.961 834.76L811.941 838.212L811.959 838.223L811.977 838.233L813.961 834.76ZM845.041 742.92V746.92C865.401 746.92 883.328 751.006 898.924 759.073L900.761 755.52L902.599 751.967C885.714 743.234 866.495 738.92 845.041 738.92V742.92ZM900.761 755.52L898.972 759.098C914.771 766.997 926.879 777.976 935.423 792.037L938.841 789.96L942.26 787.883C932.883 772.451 919.605 760.47 902.55 751.942L900.761 755.52ZM938.841 789.96L935.442 792.068C944.162 806.127 948.561 822.185 948.561 840.36H952.561H956.561C956.561 820.828 951.814 803.286 942.24 787.852L938.841 789.96ZM952.561 840.36H948.561C948.561 877.149 938.331 903.88 918.552 921.363L921.201 924.36L923.85 927.357C945.885 907.88 956.561 878.611 956.561 840.36H952.561ZM921.201 924.36L918.554 921.361C898.749 938.847 871.784 947.8 837.201 947.8V951.8V955.8C873.179 955.8 902.214 946.46 923.849 927.359L921.201 924.36ZM837.201 951.8V947.8C794.935 947.8 762.091 937.151 738.19 916.305L735.561 919.32L732.932 922.335C758.685 944.796 793.6 955.8 837.201 955.8V951.8ZM735.561 919.32L738.479 922.056C749.848 909.929 760.26 896.581 769.716 882.018L766.361 879.84L763.006 877.662C753.796 891.846 743.674 904.818 732.643 916.584L735.561 919.32ZM766.361 879.84L763.824 882.932C771.725 889.415 782.706 894.279 796.471 897.721L797.441 893.84L798.411 889.959C785.297 886.681 775.557 882.211 768.898 876.748L766.361 879.84ZM797.441 893.84L796.522 897.733C810.191 900.96 822.732 902.6 834.121 902.6V898.6V894.6C823.484 894.6 811.572 893.066 798.36 889.947L797.441 893.84ZM834.121 898.6V902.6C851.041 902.6 865.536 898.408 877.357 889.793L875.001 886.56L872.645 883.327C862.44 890.765 849.681 894.6 834.121 894.6V898.6ZM875.001 886.56L877.393 889.767C889.339 880.857 896.54 868.213 899.111 852.194L895.161 851.56L891.212 850.926C888.929 865.147 882.69 875.836 872.61 883.353L875.001 886.56ZM895.161 851.56L899.084 852.344C899.347 851.029 899.441 849.416 899.441 847.64H895.441H891.441C891.441 849.224 891.349 850.224 891.239 850.775L895.161 851.56ZM895.441 847.64L892.142 845.378C883.622 857.803 872.382 866.923 858.339 872.789L859.881 876.48L861.423 880.171C876.874 873.717 889.34 863.61 898.74 849.902L895.441 847.64ZM859.881 876.48L858.38 872.773C844.091 878.56 829.573 881.44 814.801 881.44V885.44V889.44C830.643 889.44 846.178 886.346 861.383 880.187L859.881 876.48ZM814.801 885.44V881.44C800.36 881.44 787.391 878.825 775.831 873.667L774.201 877.32L772.571 880.973C785.278 886.642 799.376 889.44 814.801 889.44V885.44ZM774.201 877.32L775.831 873.667C764.235 868.493 755.297 861.524 748.857 852.821L745.641 855.2L742.426 857.579C749.799 867.542 759.901 875.32 772.571 880.973L774.201 877.32ZM745.641 855.2L748.879 852.851C742.468 844.014 739.281 834.196 739.281 823.28H735.281H731.281C731.281 835.884 735.001 847.346 742.404 857.549L745.641 855.2ZM735.281 823.28H739.281C739.281 807.092 743.798 793.426 752.708 782.069L749.561 779.6L746.414 777.131C736.285 790.041 731.281 805.494 731.281 823.28H735.281ZM749.561 779.6L752.685 782.099C761.877 770.608 774.402 761.854 790.432 755.91L789.041 752.16L787.651 748.41C770.454 754.786 756.659 764.325 746.438 777.101L749.561 779.6ZM789.041 752.16L790.432 755.91C806.532 749.941 824.717 746.92 845.041 746.92V742.92V738.92C823.925 738.92 804.777 742.059 787.651 748.41L789.041 752.16ZM842.241 841.48V845.48C849.723 845.48 856.702 844.396 863.142 842.183L861.841 838.4L860.541 834.617C855.034 836.51 848.946 837.48 842.241 837.48V841.48ZM861.841 838.4L863.208 842.159C869.756 839.778 875.163 836.615 879.23 832.548L876.401 829.72L873.573 826.892C870.546 829.919 866.246 832.542 860.474 834.641L861.841 838.4ZM876.401 829.72L879.156 832.62C883.47 828.522 886.001 823.708 886.001 818.24H882.001H878.001C878.001 820.986 876.799 823.825 873.646 826.82L876.401 829.72ZM882.001 818.24H886.001C886.001 809.891 880.726 803.384 872.226 798.527L870.241 802L868.257 805.473C875.437 809.576 878.001 813.896 878.001 818.24H882.001ZM870.241 802L872.262 798.548C863.864 793.632 853.795 791.28 842.241 791.28V795.28V799.28C852.715 799.28 861.312 801.408 868.221 805.452L870.241 802ZM842.241 795.28V791.28C830.684 791.28 820.541 793.633 811.977 798.527L813.961 802L815.946 805.473C823.062 801.407 831.772 799.28 842.241 799.28V795.28ZM813.961 802L811.941 798.548C803.605 803.427 798.481 809.939 798.481 818.24H802.481H806.481C806.481 813.847 809.011 809.533 815.982 805.452L813.961 802ZM802.481 818.24H798.481C798.481 826.686 803.555 833.304 811.941 838.212L813.961 834.76L815.982 831.308C809.06 827.256 806.481 822.861 806.481 818.24H802.481ZM813.961 834.76L811.977 838.233C820.541 843.127 830.684 845.48 842.241 845.48V841.48V837.48C831.772 837.48 823.062 835.353 815.946 831.287L813.961 834.76Z" fill="#EFEFEA" mask="url(#path-3-outside-1_2_363)"/>
<path d="M238.728 578.988L243.564 624H227.506L226.514 591.884L220.314 624H204.07L197.746 592.132L196.816 624H180.758L185.594 578.988H206.674L212.068 608.314L216.78 578.988H238.728ZM289.306 590.148L287.88 593.744C283.954 604.201 279.841 614.287 275.542 624C273.31 628.96 270.086 632.928 265.87 635.904C261.654 638.921 256.364 640.368 249.998 640.244C249.213 636.813 248.552 634.127 248.014 632.184C247.518 630.283 246.857 628.361 246.03 626.418C248.304 626.955 250.432 627.224 252.416 627.224C255.64 627.224 258.203 626.542 260.104 625.178C258.616 620.755 256.86 616.002 254.834 610.918C252.809 605.834 249.874 598.911 246.03 590.148H260.724C261.22 592.215 261.902 594.612 262.77 597.34C263.638 600.068 264.506 602.693 265.374 605.214C265.622 605.999 266.015 607.198 266.552 608.81C267.131 610.381 267.586 611.703 267.916 612.778L269.528 607.88C272.628 598.911 274.468 593 275.046 590.148H289.306ZM362.183 578.988L367.019 624H350.961L349.969 591.884L343.769 624H327.525L321.201 592.132L320.271 624H304.213L309.049 578.988H330.129L335.523 608.314L340.235 578.988H362.183ZM410.095 590.148C409.806 595.356 409.661 600.977 409.661 607.012C409.661 613.088 409.806 618.751 410.095 624C407.45 623.876 405.363 623.814 403.833 623.814C402.387 623.814 400.299 623.876 397.571 624L395.773 614.886C394.823 618.193 393.335 620.652 391.309 622.264C389.284 623.835 386.928 624.62 384.241 624.62C381.761 624.62 379.612 624.083 377.793 623.008C375.975 621.892 374.59 620.404 373.639 618.544C372.73 616.684 372.275 614.597 372.275 612.282V603.354C372.275 597.857 372.172 593.455 371.965 590.148H385.915C385.667 596.224 385.543 602.238 385.543 608.19C385.543 610.009 385.977 611.455 386.845 612.53C387.755 613.605 388.891 614.142 390.255 614.142C391.537 614.142 392.653 613.584 393.603 612.468C394.595 611.311 395.195 609.74 395.401 607.756V606.33C395.484 603.106 395.525 600.874 395.525 599.634C395.525 596.782 395.443 593.62 395.277 590.148H410.095ZM435.101 624.62C431.629 624.62 428.095 624.145 424.499 623.194C420.944 622.202 417.596 620.714 414.455 618.73L420.965 609.864C422.866 611.228 425.16 612.303 427.847 613.088C430.533 613.832 432.848 614.204 434.791 614.204C436.651 614.204 438.077 613.956 439.069 613.46C440.102 612.923 440.619 612.241 440.619 611.414C440.619 610.753 440.371 610.236 439.875 609.864C439.379 609.492 438.697 609.306 437.829 609.306C437.291 609.306 436.671 609.327 435.969 609.368C435.307 609.409 434.77 609.451 434.357 609.492C432.207 609.74 429.996 609.864 427.723 609.864C424.044 609.864 421.047 609.182 418.733 607.818C416.459 606.413 415.323 604.139 415.323 600.998C415.323 597.361 417.038 594.55 420.469 592.566C423.899 590.541 428.942 589.528 435.597 589.528C438.862 589.528 442.148 590.003 445.455 590.954C448.803 591.863 451.758 593.248 454.321 595.108L447.191 602.3C444.835 601.06 442.623 600.192 440.557 599.696C438.531 599.159 436.485 598.89 434.419 598.89C432.972 598.89 431.732 599.179 430.699 599.758C429.665 600.337 429.149 600.998 429.149 601.742C429.149 602.321 429.355 602.775 429.769 603.106C430.223 603.437 430.802 603.602 431.505 603.602C432.207 603.602 433.179 603.54 434.419 603.416C437.436 603.209 439.689 603.106 441.177 603.106C445.475 603.106 448.803 603.829 451.159 605.276C453.515 606.723 454.693 608.934 454.693 611.91C454.693 616.374 452.957 619.619 449.485 621.644C446.013 623.628 441.218 624.62 435.101 624.62ZM467.34 586.49C464.736 586.49 462.793 585.849 461.512 584.568C460.272 583.287 459.652 581.613 459.652 579.546C459.652 577.521 460.272 575.847 461.512 574.524C462.793 573.201 464.736 572.54 467.34 572.54C469.82 572.54 471.721 573.222 473.044 574.586C474.366 575.909 475.028 577.562 475.028 579.546C475.028 581.613 474.387 583.287 473.106 584.568C471.824 585.849 469.902 586.49 467.34 586.49ZM460.148 624C460.437 617.345 460.582 611.848 460.582 607.508C460.582 602.341 460.416 596.555 460.086 590.148H474.966C474.635 596.307 474.47 602.093 474.47 607.508C474.47 612.055 474.614 617.552 474.904 624H460.148ZM493.172 607.074C493.255 609.182 493.916 610.877 495.156 612.158C496.438 613.439 498.318 614.08 500.798 614.08C502.162 614.08 503.382 613.832 504.456 613.336C505.531 612.799 506.523 612.013 507.432 610.98C510.946 612.344 515.058 613.522 519.77 614.514C518.406 617.697 516.092 620.177 512.826 621.954C509.602 623.731 505.407 624.62 500.24 624.62C493.338 624.62 488.233 623.008 484.926 619.784C481.62 616.56 479.966 612.323 479.966 607.074C479.966 601.825 481.62 597.588 484.926 594.364C488.233 591.14 493.338 589.528 500.24 589.528C505.407 589.528 509.602 590.417 512.826 592.194C516.092 593.971 518.406 596.451 519.77 599.634C516.092 600.419 511.979 601.597 507.432 603.168C506.523 602.135 505.531 601.37 504.456 600.874C503.382 600.337 502.162 600.068 500.798 600.068C498.318 600.068 496.438 600.709 495.156 601.99C493.916 603.271 493.255 604.966 493.172 607.074ZM544.448 624.62C540.976 624.62 537.442 624.145 533.846 623.194C530.292 622.202 526.944 620.714 523.802 618.73L530.312 609.864C532.214 611.228 534.508 612.303 537.194 613.088C539.881 613.832 542.196 614.204 544.138 614.204C545.998 614.204 547.424 613.956 548.416 613.46C549.45 612.923 549.966 612.241 549.966 611.414C549.966 610.753 549.718 610.236 549.222 609.864C548.726 609.492 548.044 609.306 547.176 609.306C546.639 609.306 546.019 609.327 545.316 609.368C544.655 609.409 544.118 609.451 543.704 609.492C541.555 609.74 539.344 609.864 537.07 609.864C533.392 609.864 530.395 609.182 528.08 607.818C525.807 606.413 524.67 604.139 524.67 600.998C524.67 597.361 526.386 594.55 529.816 592.566C533.247 590.541 538.29 589.528 544.944 589.528C548.21 589.528 551.496 590.003 554.802 590.954C558.15 591.863 561.106 593.248 563.668 595.108L556.538 602.3C554.182 601.06 551.971 600.192 549.904 599.696C547.879 599.159 545.833 598.89 543.766 598.89C542.32 598.89 541.08 599.179 540.046 599.758C539.013 600.337 538.496 600.998 538.496 601.742C538.496 602.321 538.703 602.775 539.116 603.106C539.571 603.437 540.15 603.602 540.852 603.602C541.555 603.602 542.526 603.54 543.766 603.416C546.784 603.209 549.036 603.106 550.524 603.106C554.823 603.106 558.15 603.829 560.506 605.276C562.862 606.723 564.04 608.934 564.04 611.91C564.04 616.374 562.304 619.619 558.832 621.644C555.36 623.628 550.566 624.62 544.448 624.62ZM595.92 611.476C607.906 611.393 617.826 611.187 625.68 610.856C625.142 612.964 624.812 614.989 624.688 616.932C624.564 618.875 624.502 621.231 624.502 624H580.792C581.122 615.981 581.288 608.479 581.288 601.494C581.288 594.509 581.122 587.007 580.792 578.988H595.92V611.476ZM638.93 586.49C636.326 586.49 634.383 585.849 633.102 584.568C631.862 583.287 631.242 581.613 631.242 579.546C631.242 577.521 631.862 575.847 633.102 574.524C634.383 573.201 636.326 572.54 638.93 572.54C641.41 572.54 643.311 573.222 644.634 574.586C645.956 575.909 646.618 577.562 646.618 579.546C646.618 581.613 645.977 583.287 644.696 584.568C643.414 585.849 641.492 586.49 638.93 586.49ZM631.738 624C632.027 617.345 632.172 611.848 632.172 607.508C632.172 602.341 632.006 596.555 631.676 590.148H646.556C646.225 596.307 646.06 602.093 646.06 607.508C646.06 612.055 646.204 617.552 646.494 624H631.738ZM672.202 624.62C668.73 624.62 665.196 624.145 661.6 623.194C658.046 622.202 654.698 620.714 651.556 618.73L658.066 609.864C659.968 611.228 662.262 612.303 664.948 613.088C667.635 613.832 669.95 614.204 671.892 614.204C673.752 614.204 675.178 613.956 676.17 613.46C677.204 612.923 677.72 612.241 677.72 611.414C677.72 610.753 677.472 610.236 676.976 609.864C676.48 609.492 675.798 609.306 674.93 609.306C674.393 609.306 673.773 609.327 673.07 609.368C672.409 609.409 671.872 609.451 671.458 609.492C669.309 609.74 667.098 609.864 664.824 609.864C661.146 609.864 658.149 609.182 655.834 607.818C653.561 606.413 652.424 604.139 652.424 600.998C652.424 597.361 654.14 594.55 657.57 592.566C661.001 590.541 666.044 589.528 672.698 589.528C675.964 589.528 679.25 590.003 682.556 590.954C685.904 591.863 688.86 593.248 691.422 595.108L684.292 602.3C681.936 601.06 679.725 600.192 677.658 599.696C675.633 599.159 673.587 598.89 671.52 598.89C670.074 598.89 668.834 599.179 667.8 599.758C666.767 600.337 666.25 600.998 666.25 601.742C666.25 602.321 666.457 602.775 666.87 603.106C667.325 603.437 667.904 603.602 668.606 603.602C669.309 603.602 670.28 603.54 671.52 603.416C674.538 603.209 676.79 603.106 678.278 603.106C682.577 603.106 685.904 603.829 688.26 605.276C690.616 606.723 691.794 608.934 691.794 611.91C691.794 616.374 690.058 619.619 686.586 621.644C683.114 623.628 678.32 624.62 672.202 624.62ZM723.008 601.246C719.206 600.998 715.734 600.812 712.592 600.688L712.53 607.26C712.53 609.492 713.006 611.249 713.956 612.53C714.948 613.77 716.684 614.39 719.164 614.39C720.115 614.39 721.024 614.307 721.892 614.142C721.727 615.671 721.644 617.221 721.644 618.792C721.644 619.536 721.686 621.231 721.768 623.876C719.95 624.207 718.42 624.413 717.18 624.496C715.94 624.579 714.328 624.62 712.344 624.62C707.508 624.62 704.078 623.463 702.052 621.148C700.068 618.792 699.076 615.527 699.076 611.352L699.138 600.874C697.196 600.957 695.17 601.081 693.062 601.246V590.272C695.212 590.272 697.03 589.59 698.518 588.226C700.006 586.862 700.895 585.229 701.184 583.328H718.048C715.94 586.221 713.605 588.536 711.042 590.272H723.008V601.246ZM759.507 608.5H739.295C739.626 610.319 740.432 611.807 741.713 612.964C743.036 614.08 744.896 614.638 747.293 614.638C749.029 614.638 750.662 614.307 752.191 613.646C753.721 612.943 754.94 611.972 755.849 610.732C758.619 612.096 762.297 613.563 766.885 615.134C765.604 618.027 763.269 620.342 759.879 622.078C756.531 623.773 752.15 624.62 746.735 624.62C739.709 624.62 734.501 623.008 731.111 619.784C727.763 616.519 726.089 612.241 726.089 606.95C726.089 601.783 727.763 597.588 731.111 594.364C734.459 591.14 739.667 589.528 746.735 589.528C750.951 589.528 754.609 590.231 757.709 591.636C760.809 593.041 763.186 595.005 764.839 597.526C766.493 600.006 767.319 602.858 767.319 606.082C767.319 607.157 767.278 607.963 767.195 608.5H759.507ZM747.603 598.89C745.537 598.89 743.842 599.283 742.519 600.068C741.197 600.853 740.267 601.928 739.729 603.292H754.361C753.865 601.969 753.059 600.915 751.943 600.13C750.827 599.303 749.381 598.89 747.603 598.89ZM795.815 624C796.063 617.924 796.187 612.323 796.187 607.198C796.187 605.379 795.733 603.933 794.823 602.858C793.955 601.783 792.839 601.246 791.475 601.246C790.111 601.246 788.954 601.866 788.003 603.106C787.053 604.305 786.495 605.958 786.329 608.066C786.247 611.207 786.205 613.439 786.205 614.762C786.205 617.573 786.288 620.652 786.453 624H771.635C771.966 618.048 772.131 612.427 772.131 607.136C772.131 601.845 771.966 596.183 771.635 590.148C774.363 590.272 776.451 590.334 777.897 590.334C779.427 590.334 781.514 590.272 784.159 590.148L785.957 599.262C786.908 595.955 788.396 593.517 790.421 591.946C792.447 590.334 794.803 589.528 797.489 589.528C799.969 589.528 802.119 590.086 803.937 591.202C805.756 592.277 807.12 593.744 808.029 595.604C808.98 597.464 809.455 599.551 809.455 601.866V610.794C809.455 616.291 809.559 620.693 809.765 624H795.815ZM847.543 608.5H827.331C827.661 610.319 828.467 611.807 829.749 612.964C831.071 614.08 832.931 614.638 835.329 614.638C837.065 614.638 838.697 614.307 840.227 613.646C841.756 612.943 842.975 611.972 843.885 610.732C846.654 612.096 850.333 613.563 854.921 615.134C853.639 618.027 851.304 620.342 847.915 622.078C844.567 623.773 840.185 624.62 834.771 624.62C827.744 624.62 822.536 623.008 819.147 619.784C815.799 616.519 814.125 612.241 814.125 606.95C814.125 601.783 815.799 597.588 819.147 594.364C822.495 591.14 827.703 589.528 834.771 589.528C838.987 589.528 842.645 590.231 845.745 591.636C848.845 593.041 851.221 595.005 852.875 597.526C854.528 600.006 855.355 602.858 855.355 606.082C855.355 607.157 855.313 607.963 855.231 608.5H847.543ZM835.639 598.89C833.572 598.89 831.877 599.283 830.555 600.068C829.232 600.853 828.302 601.928 827.765 603.292H842.397C841.901 601.969 841.095 600.915 839.979 600.13C838.863 599.303 837.416 598.89 835.639 598.89ZM900.218 575.764C899.97 583.452 899.846 591.491 899.846 599.882C899.846 608.19 899.97 616.229 900.218 624H886.206L886.392 616.56C885.194 619.329 883.458 621.375 881.184 622.698C878.911 623.979 876.224 624.62 873.124 624.62C870.438 624.62 868.02 623.855 865.87 622.326C863.721 620.797 862.047 618.73 860.848 616.126C859.65 613.481 859.05 610.587 859.05 607.446C859.05 604.346 859.65 601.432 860.848 598.704C862.047 595.935 863.721 593.723 865.87 592.07C868.061 590.375 870.541 589.528 873.31 589.528C876.534 589.528 879.283 590.21 881.556 591.574C883.871 592.897 885.586 594.963 886.702 597.774C886.702 595.418 886.62 591.636 886.454 586.428C886.289 581.385 886.206 577.831 886.206 575.764H900.218ZM879.634 614.204C881.66 614.204 883.313 613.646 884.594 612.53C885.876 611.373 886.516 609.554 886.516 607.074C886.516 604.883 885.876 603.271 884.594 602.238C883.313 601.205 881.701 600.688 879.758 600.688C877.898 600.688 876.328 601.287 875.046 602.486C873.806 603.643 873.186 605.173 873.186 607.074C873.186 609.182 873.765 610.897 874.922 612.22C876.08 613.543 877.65 614.204 879.634 614.204Z" fill="#EFEFEA"/>
<path d="M160.261 1082.55H165.096L176.466 1110.32H176.858L188.227 1082.55H193.062V1116H189.272V1090.58H188.946L178.491 1116H174.832L164.378 1090.58H164.051V1116H160.261V1082.55ZM210.855 1116.52C208.59 1116.52 206.603 1115.98 204.893 1114.91C203.194 1113.83 201.866 1112.32 200.907 1110.38C199.96 1108.44 199.486 1106.18 199.486 1103.59C199.486 1100.97 199.96 1098.69 200.907 1096.74C201.866 1094.79 203.194 1093.28 204.893 1092.2C206.603 1091.12 208.59 1090.58 210.855 1090.58C213.121 1090.58 215.103 1091.12 216.801 1092.2C218.511 1093.28 219.84 1094.79 220.787 1096.74C221.746 1098.69 222.225 1100.97 222.225 1103.59C222.225 1106.18 221.746 1108.44 220.787 1110.38C219.84 1112.32 218.511 1113.83 216.801 1114.91C215.103 1115.98 213.121 1116.52 210.855 1116.52ZM210.855 1113.06C212.576 1113.06 213.992 1112.62 215.103 1111.74C216.213 1110.85 217.036 1109.69 217.569 1108.26C218.103 1106.82 218.37 1105.26 218.37 1103.59C218.37 1101.91 218.103 1100.35 217.569 1098.9C217.036 1097.45 216.213 1096.28 215.103 1095.38C213.992 1094.49 212.576 1094.05 210.855 1094.05C209.135 1094.05 207.719 1094.49 206.608 1095.38C205.497 1096.28 204.675 1097.45 204.142 1098.9C203.608 1100.35 203.341 1101.91 203.341 1103.59C203.341 1105.26 203.608 1106.82 204.142 1108.26C204.675 1109.69 205.497 1110.85 206.608 1111.74C207.719 1112.62 209.135 1113.06 210.855 1113.06ZM228.109 1116V1090.91H231.834V1094.7H232.095C232.553 1093.46 233.38 1092.45 234.578 1091.68C235.776 1090.9 237.127 1090.52 238.629 1090.52C238.912 1090.52 239.266 1090.52 239.691 1090.53C240.116 1090.54 240.437 1090.56 240.655 1090.58V1094.5C240.524 1094.47 240.225 1094.42 239.756 1094.36C239.299 1094.28 238.814 1094.24 238.303 1094.24C237.083 1094.24 235.994 1094.5 235.036 1095.01C234.088 1095.51 233.337 1096.21 232.781 1097.1C232.237 1097.98 231.965 1098.99 231.965 1100.12V1116H228.109ZM254.654 1116.52C252.302 1116.52 250.276 1115.97 248.578 1114.86C246.879 1113.75 245.572 1112.22 244.657 1110.27C243.742 1108.32 243.285 1106.09 243.285 1103.59C243.285 1101.04 243.753 1098.79 244.69 1096.84C245.637 1094.88 246.955 1093.35 248.643 1092.25C250.342 1091.14 252.324 1090.58 254.589 1090.58C256.353 1090.58 257.943 1090.91 259.359 1091.56C260.774 1092.22 261.934 1093.13 262.838 1094.31C263.742 1095.48 264.303 1096.86 264.521 1098.42H260.666C260.372 1097.28 259.718 1096.27 258.705 1095.38C257.703 1094.49 256.353 1094.05 254.654 1094.05C253.151 1094.05 251.834 1094.44 250.701 1095.22C249.579 1095.99 248.703 1097.09 248.071 1098.5C247.45 1099.91 247.14 1101.56 247.14 1103.45C247.14 1105.39 247.445 1107.08 248.055 1108.52C248.676 1109.96 249.547 1111.07 250.668 1111.87C251.801 1112.66 253.13 1113.06 254.654 1113.06C255.656 1113.06 256.565 1112.89 257.382 1112.54C258.199 1112.19 258.89 1111.69 259.457 1111.03C260.023 1110.38 260.426 1109.6 260.666 1108.68H264.521C264.303 1110.16 263.764 1111.5 262.903 1112.68C262.054 1113.86 260.927 1114.8 259.522 1115.49C258.128 1116.18 256.506 1116.52 254.654 1116.52ZM280.676 1116.52C278.259 1116.52 276.173 1115.99 274.42 1114.92C272.677 1113.84 271.332 1112.34 270.385 1110.41C269.448 1108.47 268.98 1106.22 268.98 1103.65C268.98 1101.08 269.448 1098.82 270.385 1096.86C271.332 1094.88 272.65 1093.35 274.338 1092.25C276.037 1091.14 278.019 1090.58 280.284 1090.58C281.591 1090.58 282.881 1090.8 284.156 1091.24C285.43 1091.67 286.59 1092.38 287.635 1093.36C288.68 1094.33 289.514 1095.61 290.134 1097.21C290.755 1098.82 291.065 1100.79 291.065 1103.13V1104.76H271.725V1101.43H287.145C287.145 1100.01 286.862 1098.75 286.296 1097.64C285.74 1096.53 284.945 1095.65 283.911 1095.01C282.887 1094.37 281.678 1094.05 280.284 1094.05C278.749 1094.05 277.42 1094.43 276.298 1095.19C275.188 1095.94 274.333 1096.92 273.734 1098.13C273.135 1099.34 272.835 1100.63 272.835 1102.02V1104.24C272.835 1106.13 273.162 1107.74 273.815 1109.06C274.48 1110.36 275.4 1111.36 276.576 1112.05C277.752 1112.72 279.119 1113.06 280.676 1113.06C281.689 1113.06 282.604 1112.92 283.421 1112.63C284.248 1112.34 284.962 1111.91 285.56 1111.33C286.159 1110.74 286.622 1110.01 286.949 1109.14L290.673 1110.18C290.281 1111.45 289.622 1112.56 288.697 1113.52C287.771 1114.46 286.628 1115.21 285.266 1115.74C283.905 1116.26 282.375 1116.52 280.676 1116.52ZM304.313 1116.59C302.723 1116.59 301.28 1116.29 299.984 1115.69C298.689 1115.08 297.659 1114.2 296.897 1113.06C296.135 1111.91 295.754 1110.51 295.754 1108.88C295.754 1107.44 296.037 1106.28 296.603 1105.38C297.169 1104.48 297.926 1103.77 298.874 1103.26C299.821 1102.75 300.867 1102.37 302.01 1102.12C303.164 1101.85 304.324 1101.65 305.489 1101.49C307.014 1101.3 308.25 1101.15 309.198 1101.05C310.156 1100.94 310.853 1100.76 311.288 1100.51C311.735 1100.26 311.958 1099.83 311.958 1099.21V1099.08C311.958 1097.46 311.517 1096.21 310.635 1095.32C309.764 1094.43 308.441 1093.98 306.666 1093.98C304.825 1093.98 303.382 1094.38 302.337 1095.19C301.291 1095.99 300.556 1096.86 300.131 1097.77L296.472 1096.46C297.126 1094.94 297.997 1093.75 299.086 1092.9C300.186 1092.04 301.384 1091.44 302.68 1091.11C303.987 1090.76 305.272 1090.58 306.535 1090.58C307.341 1090.58 308.266 1090.68 309.312 1090.88C310.368 1091.06 311.386 1091.45 312.367 1092.04C313.358 1092.62 314.18 1093.51 314.833 1094.7C315.487 1095.89 315.813 1097.48 315.813 1099.47V1116H311.958V1112.6H311.762C311.501 1113.15 311.065 1113.73 310.455 1114.35C309.845 1114.97 309.034 1115.5 308.021 1115.93C307.009 1116.37 305.773 1116.59 304.313 1116.59ZM304.901 1113.12C306.426 1113.12 307.711 1112.83 308.756 1112.23C309.813 1111.63 310.608 1110.85 311.141 1109.91C311.686 1108.96 311.958 1107.96 311.958 1106.92V1103.39C311.795 1103.59 311.435 1103.76 310.88 1103.93C310.336 1104.08 309.704 1104.22 308.985 1104.34C308.277 1104.45 307.586 1104.54 306.911 1104.63C306.246 1104.71 305.707 1104.77 305.293 1104.83C304.292 1104.96 303.355 1105.17 302.484 1105.46C301.623 1105.75 300.926 1106.18 300.393 1106.75C299.87 1107.32 299.609 1108.09 299.609 1109.07C299.609 1110.41 300.104 1111.43 301.095 1112.11C302.097 1112.79 303.366 1113.12 304.901 1113.12ZM338.662 1105.74V1090.91H342.517V1116H338.662V1111.75H338.401C337.813 1113.03 336.898 1114.11 335.657 1115C334.415 1115.89 332.847 1116.33 330.952 1116.33C329.384 1116.33 327.99 1115.98 326.77 1115.3C325.55 1114.6 324.592 1113.56 323.895 1112.16C323.198 1110.76 322.85 1108.99 322.85 1106.85V1090.91H326.705V1106.59C326.705 1108.42 327.217 1109.88 328.24 1110.97C329.275 1112.06 330.593 1112.6 332.193 1112.6C333.152 1112.6 334.126 1112.36 335.117 1111.87C336.119 1111.38 336.958 1110.63 337.633 1109.61C338.319 1108.6 338.662 1107.31 338.662 1105.74ZM352.453 1090.91L358.465 1101.17L364.476 1090.91H368.919L360.817 1103.45L368.919 1116H364.476L358.465 1106.26L352.453 1116H348.01L355.982 1103.45L348.01 1090.91H352.453ZM397.877 1116.52C395.46 1116.52 393.374 1115.99 391.621 1114.92C389.879 1113.84 388.534 1112.34 387.586 1110.41C386.65 1108.47 386.181 1106.22 386.181 1103.65C386.181 1101.08 386.65 1098.82 387.586 1096.86C388.534 1094.88 389.851 1093.35 391.539 1092.25C393.238 1091.14 395.22 1090.58 397.485 1090.58C398.792 1090.58 400.083 1090.8 401.357 1091.24C402.631 1091.67 403.791 1092.38 404.836 1093.36C405.882 1094.33 406.715 1095.61 407.335 1097.21C407.956 1098.82 408.267 1100.79 408.267 1103.13V1104.76H388.926V1101.43H404.346C404.346 1100.01 404.063 1098.75 403.497 1097.64C402.941 1096.53 402.146 1095.65 401.112 1095.01C400.088 1094.37 398.879 1094.05 397.485 1094.05C395.95 1094.05 394.621 1094.43 393.5 1095.19C392.389 1095.94 391.534 1096.92 390.935 1098.13C390.336 1099.34 390.036 1100.63 390.036 1102.02V1104.24C390.036 1106.13 390.363 1107.74 391.017 1109.06C391.681 1110.36 392.601 1111.36 393.777 1112.05C394.953 1112.72 396.32 1113.06 397.877 1113.06C398.89 1113.06 399.805 1112.92 400.622 1112.63C401.449 1112.34 402.163 1111.91 402.762 1111.33C403.361 1110.74 403.823 1110.01 404.15 1109.14L407.875 1110.18C407.483 1111.45 406.824 1112.56 405.898 1113.52C404.972 1114.46 403.829 1115.21 402.468 1115.74C401.106 1116.26 399.576 1116.52 397.877 1116.52ZM395.525 1087.51L399.511 1079.93H404.019L398.923 1087.51H395.525ZM424.324 1116.52C421.972 1116.52 419.946 1115.97 418.247 1114.86C416.549 1113.75 415.242 1112.22 414.327 1110.27C413.412 1108.32 412.955 1106.09 412.955 1103.59C412.955 1101.04 413.423 1098.79 414.36 1096.84C415.307 1094.88 416.625 1093.35 418.313 1092.25C420.012 1091.14 421.994 1090.58 424.259 1090.58C426.023 1090.58 427.613 1090.91 429.029 1091.56C430.444 1092.22 431.604 1093.13 432.508 1094.31C433.412 1095.48 433.973 1096.86 434.191 1098.42H430.335C430.041 1097.28 429.388 1096.27 428.375 1095.38C427.373 1094.49 426.023 1094.05 424.324 1094.05C422.821 1094.05 421.504 1094.44 420.371 1095.22C419.249 1095.99 418.373 1097.09 417.741 1098.5C417.12 1099.91 416.81 1101.56 416.81 1103.45C416.81 1105.39 417.115 1107.08 417.725 1108.52C418.345 1109.96 419.217 1111.07 420.338 1111.87C421.471 1112.66 422.8 1113.06 424.324 1113.06C425.326 1113.06 426.235 1112.89 427.052 1112.54C427.869 1112.19 428.56 1111.69 429.127 1111.03C429.693 1110.38 430.096 1109.6 430.335 1108.68H434.191C433.973 1110.16 433.434 1111.5 432.573 1112.68C431.724 1113.86 430.597 1114.8 429.192 1115.49C427.798 1116.18 426.175 1116.52 424.324 1116.52ZM450.019 1116.52C447.754 1116.52 445.767 1115.98 444.057 1114.91C442.358 1113.83 441.03 1112.32 440.071 1110.38C439.124 1108.44 438.65 1106.18 438.65 1103.59C438.65 1100.97 439.124 1098.69 440.071 1096.74C441.03 1094.79 442.358 1093.28 444.057 1092.2C445.767 1091.12 447.754 1090.58 450.019 1090.58C452.285 1090.58 454.267 1091.12 455.965 1092.2C457.675 1093.28 459.004 1094.79 459.951 1096.74C460.91 1098.69 461.389 1100.97 461.389 1103.59C461.389 1106.18 460.91 1108.44 459.951 1110.38C459.004 1112.32 457.675 1113.83 455.965 1114.91C454.267 1115.98 452.285 1116.52 450.019 1116.52ZM450.019 1113.06C451.74 1113.06 453.156 1112.62 454.267 1111.74C455.377 1110.85 456.2 1109.69 456.733 1108.26C457.267 1106.82 457.534 1105.26 457.534 1103.59C457.534 1101.91 457.267 1100.35 456.733 1098.9C456.2 1097.45 455.377 1096.28 454.267 1095.38C453.156 1094.49 451.74 1094.05 450.019 1094.05C448.299 1094.05 446.883 1094.49 445.772 1095.38C444.661 1096.28 443.839 1097.45 443.306 1098.9C442.772 1100.35 442.505 1101.91 442.505 1103.59C442.505 1105.26 442.772 1106.82 443.306 1108.26C443.839 1109.69 444.661 1110.85 445.772 1111.74C446.883 1112.62 448.299 1113.06 450.019 1113.06ZM483.086 1105.74V1090.91H486.941V1116H483.086V1111.75H482.825C482.237 1113.03 481.322 1114.11 480.08 1115C478.839 1115.89 477.271 1116.33 475.376 1116.33C473.808 1116.33 472.414 1115.98 471.194 1115.3C469.974 1114.6 469.016 1113.56 468.319 1112.16C467.622 1110.76 467.274 1108.99 467.274 1106.85V1090.91H471.129V1106.59C471.129 1108.42 471.64 1109.88 472.664 1110.97C473.699 1112.06 475.016 1112.6 476.617 1112.6C477.576 1112.6 478.55 1112.36 479.541 1111.87C480.543 1111.38 481.382 1110.63 482.057 1109.61C482.743 1108.6 483.086 1107.31 483.086 1105.74ZM504.914 1090.91V1094.18H491.911V1090.91H504.914ZM495.701 1084.9H499.556V1108.81C499.556 1109.9 499.714 1110.72 500.03 1111.26C500.356 1111.8 500.77 1112.16 501.271 1112.34C501.783 1112.52 502.322 1112.6 502.888 1112.6C503.313 1112.6 503.662 1112.58 503.934 1112.54C504.206 1112.48 504.424 1112.44 504.587 1112.41L505.371 1115.87C505.11 1115.97 504.745 1116.07 504.277 1116.16C503.809 1116.27 503.215 1116.33 502.496 1116.33C501.407 1116.33 500.34 1116.09 499.295 1115.62C498.26 1115.16 497.4 1114.44 496.714 1113.48C496.039 1112.53 495.701 1111.32 495.701 1109.86V1084.9ZM520.963 1116.52C518.546 1116.52 516.46 1115.99 514.707 1114.92C512.965 1113.84 511.62 1112.34 510.672 1110.41C509.736 1108.47 509.267 1106.22 509.267 1103.65C509.267 1101.08 509.736 1098.82 510.672 1096.86C511.62 1094.88 512.937 1093.35 514.625 1092.25C516.324 1091.14 518.306 1090.58 520.571 1090.58C521.878 1090.58 523.169 1090.8 524.443 1091.24C525.717 1091.67 526.877 1092.38 527.922 1093.36C528.968 1094.33 529.801 1095.61 530.421 1097.21C531.042 1098.82 531.353 1100.79 531.353 1103.13V1104.76H512.012V1101.43H527.432C527.432 1100.01 527.149 1098.75 526.583 1097.64C526.027 1096.53 525.232 1095.65 524.198 1095.01C523.174 1094.37 521.965 1094.05 520.571 1094.05C519.036 1094.05 517.707 1094.43 516.585 1095.19C515.475 1095.94 514.62 1096.92 514.021 1098.13C513.422 1099.34 513.122 1100.63 513.122 1102.02V1104.24C513.122 1106.13 513.449 1107.74 514.103 1109.06C514.767 1110.36 515.687 1111.36 516.863 1112.05C518.039 1112.72 519.406 1113.06 520.963 1113.06C521.976 1113.06 522.891 1112.92 523.708 1112.63C524.535 1112.34 525.249 1111.91 525.848 1111.33C526.447 1110.74 526.909 1110.01 527.236 1109.14L530.96 1110.18C530.568 1111.45 529.91 1112.56 528.984 1113.52C528.058 1114.46 526.915 1115.21 525.554 1115.74C524.192 1116.26 522.662 1116.52 520.963 1116.52ZM518.611 1087.51L522.597 1079.93H527.105L522.009 1087.51H518.611ZM559.629 1116.52C557.538 1116.52 555.692 1115.99 554.091 1114.94C552.49 1113.87 551.238 1112.37 550.334 1110.43C549.43 1108.48 548.978 1106.18 548.978 1103.52C548.978 1100.88 549.43 1098.6 550.334 1096.66C551.238 1094.72 552.496 1093.22 554.108 1092.17C555.719 1091.11 557.581 1090.58 559.694 1090.58C561.328 1090.58 562.618 1090.85 563.566 1091.4C564.524 1091.93 565.254 1092.54 565.755 1093.23C566.266 1093.9 566.664 1094.46 566.947 1094.89H567.274V1082.55H571.129V1116H567.404V1112.14H566.947C566.664 1112.6 566.261 1113.18 565.738 1113.88C565.215 1114.56 564.469 1115.18 563.5 1115.72C562.531 1116.26 561.241 1116.52 559.629 1116.52ZM560.152 1113.06C561.698 1113.06 563.005 1112.66 564.072 1111.85C565.139 1111.03 565.951 1109.91 566.506 1108.47C567.061 1107.02 567.339 1105.35 567.339 1103.45C567.339 1101.58 567.067 1099.94 566.522 1098.54C565.978 1097.12 565.172 1096.02 564.105 1095.24C563.037 1094.44 561.72 1094.05 560.152 1094.05C558.518 1094.05 557.157 1094.46 556.068 1095.3C554.99 1096.13 554.178 1097.26 553.634 1098.68C553.1 1100.1 552.833 1101.69 552.833 1103.45C552.833 1105.24 553.106 1106.86 553.65 1108.32C554.206 1109.77 555.022 1110.93 556.1 1111.79C557.189 1112.63 558.54 1113.06 560.152 1113.06ZM589.245 1116.52C586.827 1116.52 584.742 1115.99 582.988 1114.92C581.246 1113.84 579.901 1112.34 578.953 1110.41C578.017 1108.47 577.549 1106.22 577.549 1103.65C577.549 1101.08 578.017 1098.82 578.953 1096.86C579.901 1094.88 581.219 1093.35 582.907 1092.25C584.605 1091.14 586.587 1090.58 588.853 1090.58C590.159 1090.58 591.45 1090.8 592.724 1091.24C593.998 1091.67 595.158 1092.38 596.203 1093.36C597.249 1094.33 598.082 1095.61 598.703 1097.21C599.323 1098.82 599.634 1100.79 599.634 1103.13V1104.76H580.293V1101.43H595.713C595.713 1100.01 595.43 1098.75 594.864 1097.64C594.309 1096.53 593.514 1095.65 592.479 1095.01C591.455 1094.37 590.246 1094.05 588.853 1094.05C587.317 1094.05 585.988 1094.43 584.867 1095.19C583.756 1095.94 582.901 1096.92 582.302 1098.13C581.703 1099.34 581.404 1100.63 581.404 1102.02V1104.24C581.404 1106.13 581.73 1107.74 582.384 1109.06C583.048 1110.36 583.968 1111.36 585.144 1112.05C586.321 1112.72 587.687 1113.06 589.245 1113.06C590.257 1113.06 591.172 1112.92 591.989 1112.63C592.817 1112.34 593.53 1111.91 594.129 1111.33C594.728 1110.74 595.191 1110.01 595.517 1109.14L599.242 1110.18C598.85 1111.45 598.191 1112.56 597.265 1113.52C596.34 1114.46 595.196 1115.21 593.835 1115.74C592.474 1116.26 590.943 1116.52 589.245 1116.52ZM605.498 1125.41V1090.91H609.223V1094.89H609.68C609.963 1094.46 610.355 1093.9 610.856 1093.23C611.368 1092.54 612.098 1091.93 613.045 1091.4C614.003 1090.85 615.299 1090.58 616.933 1090.58C619.045 1090.58 620.908 1091.11 622.519 1092.17C624.131 1093.22 625.389 1094.72 626.293 1096.66C627.197 1098.6 627.649 1100.88 627.649 1103.52C627.649 1106.18 627.197 1108.48 626.293 1110.43C625.389 1112.37 624.137 1113.87 622.536 1114.94C620.935 1115.99 619.089 1116.52 616.998 1116.52C615.386 1116.52 614.096 1116.26 613.127 1115.72C612.157 1115.18 611.411 1114.56 610.889 1113.88C610.366 1113.18 609.963 1112.6 609.68 1112.14H609.353V1125.41H605.498ZM609.288 1103.45C609.288 1105.35 609.566 1107.02 610.121 1108.47C610.676 1109.91 611.488 1111.03 612.555 1111.85C613.622 1112.66 614.929 1113.06 616.475 1113.06C618.087 1113.06 619.432 1112.63 620.51 1111.79C621.599 1110.93 622.416 1109.77 622.96 1108.32C623.516 1106.86 623.794 1105.24 623.794 1103.45C623.794 1101.69 623.521 1100.1 622.977 1098.68C622.443 1097.26 621.632 1096.13 620.543 1095.3C619.465 1094.46 618.109 1094.05 616.475 1094.05C614.907 1094.05 613.59 1094.44 612.522 1095.24C611.455 1096.02 610.649 1097.12 610.105 1098.54C609.56 1099.94 609.288 1101.58 609.288 1103.45ZM649.342 1105.74V1090.91H653.197V1116H649.342V1111.75H649.081C648.492 1113.03 647.578 1114.11 646.336 1115C645.095 1115.89 643.527 1116.33 641.632 1116.33C640.063 1116.33 638.67 1115.98 637.45 1115.3C636.23 1114.6 635.272 1113.56 634.575 1112.16C633.878 1110.76 633.529 1108.99 633.529 1106.85V1090.91H637.384V1106.59C637.384 1108.42 637.896 1109.88 638.92 1110.97C639.955 1112.06 641.272 1112.6 642.873 1112.6C643.831 1112.6 644.806 1112.36 645.797 1111.87C646.799 1111.38 647.638 1110.63 648.313 1109.61C648.999 1108.6 649.342 1107.31 649.342 1105.74ZM660.258 1116V1090.91H664.113V1116H660.258ZM662.218 1086.73C661.467 1086.73 660.819 1086.47 660.274 1085.96C659.741 1085.45 659.474 1084.83 659.474 1084.11C659.474 1083.39 659.741 1082.78 660.274 1082.27C660.819 1081.76 661.467 1081.5 662.218 1081.5C662.97 1081.5 663.612 1081.76 664.146 1082.27C664.69 1082.78 664.962 1083.39 664.962 1084.11C664.962 1084.83 664.69 1085.45 664.146 1085.96C663.612 1086.47 662.97 1086.73 662.218 1086.73ZM688.947 1096.53L685.484 1097.51C685.266 1096.93 684.945 1096.37 684.52 1095.83C684.106 1095.27 683.54 1094.81 682.821 1094.45C682.102 1094.09 681.182 1093.91 680.06 1093.91C678.525 1093.91 677.245 1094.27 676.222 1094.98C675.209 1095.67 674.702 1096.56 674.702 1097.64C674.702 1098.6 675.051 1099.35 675.748 1099.91C676.445 1100.47 677.534 1100.93 679.015 1101.3L682.739 1102.21C684.983 1102.76 686.654 1103.59 687.754 1104.71C688.854 1105.82 689.404 1107.26 689.404 1109.01C689.404 1110.45 688.99 1111.73 688.163 1112.86C687.346 1114 686.202 1114.89 684.732 1115.54C683.262 1116.2 681.552 1116.52 679.603 1116.52C677.044 1116.52 674.926 1115.97 673.248 1114.86C671.571 1113.75 670.51 1112.12 670.063 1109.99L673.722 1109.07C674.071 1110.42 674.73 1111.44 675.699 1112.11C676.679 1112.79 677.958 1113.12 679.538 1113.12C681.334 1113.12 682.761 1112.74 683.817 1111.98C684.885 1111.21 685.418 1110.28 685.418 1109.2C685.418 1108.33 685.113 1107.6 684.503 1107.02C683.894 1106.42 682.957 1105.97 681.694 1105.68L677.512 1104.7C675.214 1104.15 673.526 1103.31 672.448 1102.16C671.381 1101.01 670.847 1099.57 670.847 1097.84C670.847 1096.42 671.245 1095.17 672.04 1094.08C672.846 1092.99 673.94 1092.13 675.323 1091.51C676.717 1090.89 678.296 1090.58 680.06 1090.58C682.543 1090.58 684.493 1091.13 685.908 1092.22C687.335 1093.3 688.348 1094.74 688.947 1096.53ZM719.694 1116.46C717.254 1116.46 715.082 1116.04 713.176 1115.2C711.281 1114.35 709.784 1113.18 708.684 1111.7C707.595 1110.21 707.034 1108.49 707.001 1106.54H714.123C714.167 1107.36 714.434 1108.08 714.924 1108.7C715.425 1109.31 716.089 1109.78 716.917 1110.12C717.744 1110.46 718.675 1110.63 719.71 1110.63C720.788 1110.63 721.741 1110.44 722.569 1110.05C723.396 1109.67 724.044 1109.14 724.513 1108.47C724.981 1107.79 725.215 1107.02 725.215 1106.13C725.215 1105.24 724.964 1104.45 724.464 1103.76C723.973 1103.07 723.266 1102.52 722.34 1102.13C721.425 1101.74 720.336 1101.54 719.073 1101.54H715.953V1096.35H719.073C720.14 1096.35 721.082 1096.16 721.899 1095.79C722.727 1095.42 723.369 1094.91 723.826 1094.26C724.284 1093.59 724.513 1092.82 724.513 1091.94C724.513 1091.1 724.311 1090.36 723.908 1089.73C723.516 1089.09 722.961 1088.59 722.242 1088.23C721.534 1087.87 720.706 1087.69 719.759 1087.69C718.801 1087.69 717.924 1087.87 717.129 1088.21C716.334 1088.55 715.697 1089.04 715.218 1089.67C714.739 1090.3 714.483 1091.04 714.45 1091.89H707.671C707.704 1089.96 708.254 1088.26 709.321 1086.79C710.388 1085.32 711.825 1084.17 713.633 1083.35C715.452 1082.51 717.505 1082.09 719.792 1082.09C722.1 1082.09 724.12 1082.51 725.852 1083.35C727.584 1084.18 728.928 1085.32 729.887 1086.74C730.856 1088.16 731.335 1089.75 731.324 1091.51C731.335 1093.39 730.753 1094.95 729.576 1096.2C728.411 1097.45 726.892 1098.25 725.019 1098.59V1098.85C727.48 1099.16 729.353 1100.02 730.638 1101.41C731.934 1102.8 732.577 1104.53 732.566 1106.61C732.577 1108.51 732.027 1110.21 730.916 1111.69C729.816 1113.17 728.297 1114.33 726.358 1115.18C724.42 1116.03 722.198 1116.46 719.694 1116.46ZM750.49 1116.46C748.769 1116.45 747.108 1116.16 745.507 1115.59C743.917 1115.03 742.491 1114.11 741.228 1112.83C739.964 1111.56 738.962 1109.87 738.222 1107.77C737.492 1105.67 737.127 1103.08 737.127 1100.02C737.138 1097.21 737.46 1094.7 738.091 1092.49C738.734 1090.27 739.648 1088.39 740.835 1086.84C742.033 1085.3 743.465 1084.12 745.132 1083.31C746.798 1082.5 748.666 1082.09 750.735 1082.09C752.967 1082.09 754.938 1082.52 756.648 1083.39C758.358 1084.26 759.73 1085.43 760.764 1086.91C761.81 1088.39 762.442 1090.05 762.659 1091.89H755.684C755.412 1090.72 754.84 1089.81 753.969 1089.14C753.098 1088.48 752.02 1088.15 750.735 1088.15C748.557 1088.15 746.901 1089.1 745.769 1090.99C744.647 1092.89 744.075 1095.46 744.054 1098.72H744.282C744.783 1097.73 745.458 1096.88 746.308 1096.19C747.168 1095.48 748.143 1094.94 749.232 1094.57C750.332 1094.19 751.492 1094 752.711 1094C754.693 1094 756.457 1094.46 758.004 1095.4C759.55 1096.33 760.77 1097.6 761.663 1099.22C762.556 1100.85 763.002 1102.7 763.002 1104.79C763.002 1107.06 762.474 1109.07 761.418 1110.84C760.372 1112.6 758.908 1113.99 757.024 1114.99C755.151 1115.98 752.973 1116.47 750.49 1116.46ZM750.457 1110.9C751.546 1110.9 752.521 1110.64 753.381 1110.12C754.241 1109.6 754.916 1108.89 755.407 1108C755.897 1107.1 756.142 1106.1 756.142 1104.99C756.142 1103.88 755.897 1102.88 755.407 1102C754.927 1101.12 754.263 1100.42 753.414 1099.89C752.564 1099.37 751.595 1099.11 750.506 1099.11C749.689 1099.11 748.932 1099.26 748.235 1099.57C747.549 1099.87 746.945 1100.3 746.422 1100.84C745.91 1101.39 745.507 1102.02 745.213 1102.74C744.919 1103.44 744.772 1104.2 744.772 1105.01C744.772 1106.08 745.017 1107.07 745.507 1107.96C746.008 1108.86 746.684 1109.57 747.533 1110.1C748.393 1110.64 749.368 1110.9 750.457 1110.9ZM780.236 1116.46C777.927 1116.46 775.869 1116.03 774.061 1115.18C772.264 1114.33 770.838 1113.16 769.782 1111.67C768.725 1110.18 768.175 1108.47 768.132 1106.54H774.992C775.069 1107.84 775.613 1108.89 776.626 1109.69C777.639 1110.5 778.842 1110.9 780.236 1110.9C781.347 1110.9 782.327 1110.66 783.176 1110.17C784.037 1109.67 784.706 1108.98 785.186 1108.09C785.676 1107.2 785.921 1106.18 785.921 1105.02C785.921 1103.85 785.67 1102.81 785.169 1101.92C784.679 1101.03 783.999 1100.33 783.127 1099.83C782.256 1099.33 781.26 1099.07 780.138 1099.06C779.158 1099.06 778.205 1099.26 777.279 1099.66C776.365 1100.07 775.651 1100.62 775.139 1101.31L768.85 1100.19L770.435 1082.55H790.887V1088.33H776.267L775.401 1096.71H775.597C776.185 1095.88 777.072 1095.19 778.259 1094.65C779.447 1094.11 780.775 1093.83 782.245 1093.83C784.26 1093.83 786.057 1094.31 787.636 1095.25C789.215 1096.2 790.462 1097.5 791.377 1099.16C792.291 1100.8 792.743 1102.7 792.733 1104.84C792.743 1107.1 792.221 1109.1 791.164 1110.85C790.119 1112.6 788.654 1113.97 786.77 1114.97C784.897 1115.96 782.719 1116.46 780.236 1116.46ZM820.894 1116.52C818.804 1116.52 816.958 1115.99 815.357 1114.94C813.756 1113.87 812.504 1112.37 811.6 1110.43C810.696 1108.48 810.244 1106.18 810.244 1103.52C810.244 1100.88 810.696 1098.6 811.6 1096.66C812.504 1094.72 813.761 1093.22 815.373 1092.17C816.985 1091.11 818.847 1090.58 820.96 1090.58C822.593 1090.58 823.884 1090.85 824.831 1091.4C825.79 1091.93 826.519 1092.54 827.02 1093.23C827.532 1093.9 827.929 1094.46 828.213 1094.89H828.539V1082.55H832.394V1116H828.67V1112.14H828.213C827.929 1112.6 827.527 1113.18 827.004 1113.88C826.481 1114.56 825.735 1115.18 824.766 1115.72C823.797 1116.26 822.506 1116.52 820.894 1116.52ZM821.417 1113.06C822.964 1113.06 824.27 1112.66 825.338 1111.85C826.405 1111.03 827.216 1109.91 827.772 1108.47C828.327 1107.02 828.605 1105.35 828.605 1103.45C828.605 1101.58 828.332 1099.94 827.788 1098.54C827.243 1097.12 826.438 1096.02 825.37 1095.24C824.303 1094.44 822.985 1094.05 821.417 1094.05C819.784 1094.05 818.422 1094.46 817.333 1095.3C816.255 1096.13 815.444 1097.26 814.899 1098.68C814.366 1100.1 814.099 1101.69 814.099 1103.45C814.099 1105.24 814.371 1106.86 814.916 1108.32C815.471 1109.77 816.288 1110.93 817.366 1111.79C818.455 1112.63 819.805 1113.06 821.417 1113.06ZM847.374 1116.59C845.784 1116.59 844.341 1116.29 843.045 1115.69C841.749 1115.08 840.72 1114.2 839.958 1113.06C839.195 1111.91 838.814 1110.51 838.814 1108.88C838.814 1107.44 839.097 1106.28 839.664 1105.38C840.23 1104.48 840.987 1103.77 841.934 1103.26C842.882 1102.75 843.927 1102.37 845.071 1102.12C846.225 1101.85 847.385 1101.65 848.55 1101.49C850.075 1101.3 851.311 1101.15 852.258 1101.05C853.216 1100.94 853.913 1100.76 854.349 1100.51C854.795 1100.26 855.019 1099.83 855.019 1099.21V1099.08C855.019 1097.46 854.578 1096.21 853.696 1095.32C852.824 1094.43 851.501 1093.98 849.726 1093.98C847.886 1093.98 846.443 1094.38 845.397 1095.19C844.352 1095.99 843.617 1096.86 843.192 1097.77L839.533 1096.46C840.186 1094.94 841.058 1093.75 842.147 1092.9C843.246 1092.04 844.444 1091.44 845.74 1091.11C847.047 1090.76 848.332 1090.58 849.595 1090.58C850.401 1090.58 851.327 1090.68 852.372 1090.88C853.429 1091.06 854.447 1091.45 855.427 1092.04C856.418 1092.62 857.24 1093.51 857.894 1094.7C858.547 1095.89 858.874 1097.48 858.874 1099.47V1116H855.019V1112.6H854.823C854.561 1113.15 854.126 1113.73 853.516 1114.35C852.906 1114.97 852.095 1115.5 851.082 1115.93C850.069 1116.37 848.833 1116.59 847.374 1116.59ZM847.962 1113.12C849.487 1113.12 850.772 1112.83 851.817 1112.23C852.873 1111.63 853.668 1110.85 854.202 1109.91C854.746 1108.96 855.019 1107.96 855.019 1106.92V1103.39C854.855 1103.59 854.496 1103.76 853.941 1103.93C853.396 1104.08 852.764 1104.22 852.046 1104.34C851.338 1104.45 850.646 1104.54 849.971 1104.63C849.307 1104.71 848.768 1104.77 848.354 1104.83C847.352 1104.96 846.416 1105.17 845.544 1105.46C844.684 1105.75 843.987 1106.18 843.453 1106.75C842.931 1107.32 842.669 1108.09 842.669 1109.07C842.669 1110.41 843.165 1111.43 844.156 1112.11C845.158 1112.79 846.426 1113.12 847.962 1113.12ZM867.495 1125.41C866.841 1125.41 866.259 1125.35 865.747 1125.25C865.235 1125.15 864.881 1125.05 864.685 1124.95L865.665 1121.55C866.602 1121.79 867.429 1121.88 868.148 1121.82C868.867 1121.75 869.504 1121.43 870.059 1120.85C870.626 1120.29 871.143 1119.37 871.611 1118.09L872.33 1116.13L863.052 1090.91H867.233L874.16 1110.9H874.421L881.347 1090.91H885.529L874.878 1119.66C874.399 1120.96 873.806 1122.03 873.098 1122.88C872.39 1123.74 871.568 1124.37 870.631 1124.79C869.705 1125.2 868.66 1125.41 867.495 1125.41ZM908.39 1096.53L904.927 1097.51C904.709 1096.93 904.388 1096.37 903.963 1095.83C903.549 1095.27 902.983 1094.81 902.264 1094.45C901.546 1094.09 900.625 1093.91 899.504 1093.91C897.968 1093.91 896.689 1094.27 895.665 1094.98C894.652 1095.67 894.146 1096.56 894.146 1097.64C894.146 1098.6 894.494 1099.35 895.191 1099.91C895.888 1100.47 896.977 1100.93 898.458 1101.3L902.183 1102.21C904.426 1102.76 906.098 1103.59 907.198 1104.71C908.297 1105.82 908.847 1107.26 908.847 1109.01C908.847 1110.45 908.434 1111.73 907.606 1112.86C906.789 1114 905.646 1114.89 904.176 1115.54C902.705 1116.2 900.996 1116.52 899.046 1116.52C896.487 1116.52 894.369 1115.97 892.692 1114.86C891.015 1113.75 889.953 1112.12 889.506 1109.99L893.166 1109.07C893.514 1110.42 894.173 1111.44 895.142 1112.11C896.122 1112.79 897.402 1113.12 898.981 1113.12C900.778 1113.12 902.204 1112.74 903.261 1111.98C904.328 1111.21 904.862 1110.28 904.862 1109.2C904.862 1108.33 904.557 1107.6 903.947 1107.02C903.337 1106.42 902.4 1105.97 901.137 1105.68L896.955 1104.7C894.658 1104.15 892.97 1103.31 891.891 1102.16C890.824 1101.01 890.291 1099.57 890.291 1097.84C890.291 1096.42 890.688 1095.17 891.483 1094.08C892.289 1092.99 893.383 1092.13 894.766 1091.51C896.16 1090.89 897.739 1090.58 899.504 1090.58C901.987 1090.58 903.936 1091.13 905.352 1092.22C906.778 1093.3 907.791 1094.74 908.39 1096.53ZM917.46 1116.26C916.654 1116.26 915.963 1115.97 915.386 1115.4C914.808 1114.82 914.52 1114.13 914.52 1113.32C914.52 1112.52 914.808 1111.82 915.386 1111.25C915.963 1110.67 916.654 1110.38 917.46 1110.38C918.266 1110.38 918.958 1110.67 919.535 1111.25C920.112 1111.82 920.4 1112.52 920.4 1113.32C920.4 1113.85 920.264 1114.34 919.992 1114.79C919.731 1115.24 919.377 1115.6 918.93 1115.87C918.495 1116.13 918.005 1116.26 917.46 1116.26Z" fill="#EFEFEA"/>
</svg>
